<?xml version="1.0" encoding="utf-8"?>
<!-- Generator: Adobe Illustrator 26.0.1, SVG Export Plug-In . SVG Version: 6.00 Build 0)  -->
<svg version="1.1" id="bgr-logo" xmlns="http://www.w3.org/2000/svg" xmlns:xlink="http://www.w3.org/1999/xlink" x="0px" y="0px"
	 viewBox="0 0 110.7 48" style="enable-background:new 0 0 110.7 48;" xml:space="preserve">
<style type="text/css">
	.st0{fill-rule:evenodd;clip-rule:evenodd;fill:#1A1A1A;}
</style>
<path id="bgr-logomark" class="st0" d="M48.1,24.2h-4.4V29h4.4c0.7,0,1.3-0.6,1.3-1.3v-2.2C49.4,24.8,48.8,24.2,48.1,24.2L48.1,24.2
	z M48.1,23.1c0.7,0,1.2-0.6,1.2-1.3v-1.5c0-0.7-0.6-1.3-1.3-1.3h-4.4v4.1L48.1,23.1L48.1,23.1z M48.1,17.8c1.3,0,2.4,1.1,2.4,2.4
	v1.6c0,0.7-0.3,1.3-0.9,1.8c0.5,0.4,0.9,1.1,0.9,1.8v2.3c0,1.3-1.1,2.4-2.4,2.4h-5c-0.3,0-0.6-0.2-0.6-0.5c0,0,0,0,0,0V18.4
	c0-0.2,0.1-0.4,0.3-0.5c0.1,0,0.2-0.1,0.3-0.1L48.1,17.8z M58.6,26.1V24l-2.1-5h-1.3l-2.1,5v2.1H58.6z M59.7,23.7l0,0.2v5.8
	c0,0.3-0.3,0.6-0.6,0.6s-0.6-0.3-0.6-0.6v-2.4h-5.4v2.4c0,0.3-0.3,0.5-0.6,0.5c-0.3,0-0.5-0.2-0.5-0.5v-5.8l0-0.2l2.2-5.5
	c0.1-0.2,0.3-0.3,0.5-0.3h0.1h2.1h0.1c0.2,0,0.3,0.2,0.4,0.3L59.7,23.7z M63.8,19c-0.7,0-1.3,0.6-1.3,1.3v7.4c0,0.7,0.6,1.3,1.3,1.3
	h3.1c0.7,0,1.3-0.6,1.3-1.3c0,0,0,0,0,0v-3.5H66c-0.3,0-0.6-0.2-0.6-0.5c0-0.3,0.2-0.6,0.5-0.6c0,0,0.1,0,0.1,0h2.7
	c0.3,0,0.6,0.3,0.6,0.6v4.1c0,1.3-1.1,2.4-2.4,2.4h-3.1c-1.3,0-2.4-1.1-2.4-2.4v-7.5c0-1.3,1.1-2.4,2.4-2.4h3.1
	c1.3,0,2.4,1.1,2.4,2.4c0,0.3-0.3,0.6-0.6,0.6c-0.3,0-0.6-0.3-0.6-0.6c0-0.7-0.6-1.3-1.3-1.3L63.8,19z M77.4,26.1V24l-2.1-5H74
	L72,24v2.1H77.4z M78.5,23.7l0,0.2v5.8c0,0.3-0.3,0.6-0.6,0.6c-0.3,0-0.6-0.3-0.6-0.6v-2.4H72v2.4c0,0.3-0.3,0.6-0.6,0.6
	c-0.3,0-0.6-0.3-0.6-0.6v-5.8l0-0.2l2.2-5.5c0.1-0.2,0.3-0.3,0.5-0.3h0.1h2.1h0.1c0.2,0,0.3,0.2,0.4,0.3L78.5,23.7z M86.6,26.1V24
	l-2.1-5h-1.3l-2.1,5v2.1H86.6z M87.8,23.7l0,0.2v5.8c0,0.3-0.3,0.6-0.6,0.6c-0.3,0-0.6-0.3-0.6-0.6v-2.4h-5.4v2.4
	c0,0.3-0.3,0.6-0.6,0.6c-0.3,0-0.6-0.3-0.6-0.6v-5.8l0-0.2l2.2-5.5c0.1-0.2,0.3-0.3,0.5-0.3h0.1H85h0.1c0.2,0,0.3,0.2,0.4,0.3
	L87.8,23.7z M94.9,17.8c1.3,0,2.4,1.1,2.4,2.4c0,0,0,0,0,0v1.6c-0.1,1.3-1.1,2.3-2.4,2.3h-0.5l2.8,3.3c0.1,0.1,0.1,0.2,0.1,0.4v1.7
	c0,0.3-0.3,0.5-0.6,0.5c-0.3,0-0.5-0.2-0.5-0.5v-1.5l-2.9-3.5l0,0l-0.3-0.4h-2.4v5.4c0,0.3-0.3,0.6-0.6,0.6c-0.3,0-0.6-0.3-0.6-0.6
	l0,0V18.4c0-0.3,0.3-0.6,0.6-0.6L94.9,17.8z M96.2,20.3v1.5c0,0.7-0.6,1.3-1.3,1.3h-4.4V19h4.4C95.6,19,96.2,19.5,96.2,20.3
	C96.2,20.3,96.2,20.3,96.2,20.3L96.2,20.3z"/>
<path id="bgr-logotype" class="st0" d="M25.7,19c0.7,0,1.3,0.6,1.3,1.3v1.6c-0.1,0.7-0.6,1.2-1.2,1.2h-4.4V19L25.7,19z M25.6,24.2
	h0.2c0.7,0.1,1.2,0.6,1.2,1.3v2.3c0,0.7-0.6,1.2-1.3,1.2h-4.4v-4.8H25.6z M25.7,17.8h-5c-0.1,0-0.1,0-0.2,0.1
	c-0.2,0.1-0.3,0.3-0.3,0.5v11.2c0,0.1,0.1,0.3,0.2,0.3c0.1,0.1,0.3,0.2,0.4,0.2h5.1c1.3-0.1,2.3-1.1,2.3-2.4v-2.3
	c0-0.7-0.3-1.4-0.9-1.8c0.5-0.4,0.9-1.1,0.9-1.8v-1.7C28.1,18.9,27,17.8,25.7,17.8z M36.5,11.7v24.7H11.8V11.7H36.5z"/>
</svg>
