<?xml version="1.0" encoding="UTF-8" standalone="no"?>
<!-- Created with Inkscape (http://www.inkscape.org/) -->

<svg
   xmlns:dc="http://purl.org/dc/elements/1.1/"
   xmlns:cc="http://creativecommons.org/ns#"
   xmlns:rdf="http://www.w3.org/1999/02/22-rdf-syntax-ns#"
   xmlns:svg="http://www.w3.org/2000/svg"
   xmlns="http://www.w3.org/2000/svg"
   xmlns:sodipodi="http://sodipodi.sourceforge.net/DTD/sodipodi-0.dtd"
   xmlns:inkscape="http://www.inkscape.org/namespaces/inkscape"
   width="130.16975"
   height="31.879999"
   id="svg3103"
   version="1.1"
   inkscape:version="0.48.2 r9819"
   sodipodi:docname="dagit-logo.svg">
  <defs
     id="defs3105">
    <clipPath
       clipPathUnits="userSpaceOnUse"
       id="clipPath16">
      <path
         inkscape:connector-curvature="0"
         d="m 0,0 595.276,0 0,841.89 L 0,841.89 0,0 z"
         id="path18" />
    </clipPath>
  </defs>
  <sodipodi:namedview
     id="base"
     pagecolor="#ffffff"
     bordercolor="#666666"
     borderopacity="1.0"
     inkscape:pageopacity="0.0"
     inkscape:pageshadow="2"
     inkscape:zoom="0.35"
     inkscape:cx="-14.20084"
     inkscape:cy="-52.631408"
     inkscape:document-units="px"
     inkscape:current-layer="layer1"
     showgrid="false"
     inkscape:window-width="445"
     inkscape:window-height="451"
     inkscape:window-x="215"
     inkscape:window-y="80"
     inkscape:window-maximized="0"
     fit-margin-top="0"
     fit-margin-left="0"
     fit-margin-right="0"
     fit-margin-bottom="0" />
  <metadata
     id="metadata3108">
    <rdf:RDF>
      <cc:Work
         rdf:about="">
        <dc:format>image/svg+xml</dc:format>
        <dc:type
           rdf:resource="http://purl.org/dc/dcmitype/StillImage" />
        <dc:title />
      </cc:Work>
    </rdf:RDF>
  </metadata>
  <g
     inkscape:label="Layer 1"
     inkscape:groupmode="layer"
     id="layer1"
     transform="translate(-389.20084,-447.85077)">
    <g
       transform="matrix(1.25,0,0,-1.25,336.88984,1436.6104)"
       id="g12">
      <g
         id="g14"
         clip-path="url(#clipPath16)">
        <g
           id="g20"
           transform="translate(145.9711,789.292)">
          <path
             inkscape:connector-curvature="0"
             d="m 0,0 c -0.121,0.613 -0.645,1.077 -1.283,1.117 -0.03,0.002 -16.489,0.002 -16.519,0 -0.665,-0.042 -1.2,-0.545 -1.291,-1.195 -0.009,-0.064 -0.009,-1.362 0,-1.427 0.085,-0.609 0.559,-1.089 1.165,-1.183 0.071,-0.01 0.357,-0.01 0.426,0 l 5.878,0 c 0,0 -0.043,-19.331 -0.043,-19.444 0,-0.114 0.018,-0.222 0.043,-0.329 0.13,-0.538 0.57,-0.953 1.122,-1.046 0.076,-0.013 0.154,-0.023 0.233,-0.023 l 0.04,0 c 0.215,0.004 1.311,0 1.39,0 0.079,0 0.156,0.01 0.233,0.023 0.575,0.097 1.03,0.542 1.138,1.113 0.017,0.085 0.027,0.172 0.027,0.262 0,0.09 -0.027,19.444 -0.027,19.444 0,0 6.24,-0.01 6.31,0 0.582,0.09 1.045,0.533 1.158,1.106 0.018,0.088 0.018,1.494 0,1.582"
             style="fill:#808285;fill-opacity:1;fill-rule:nonzero;stroke:none"
             id="path22" />
        </g>
        <g
           id="g24"
           transform="translate(123.4076,789.0117)">
          <path
             inkscape:connector-curvature="0"
             d="m 0,0 c 0,0.106 -0.015,0.21 -0.037,0.31 -0.142,0.622 -0.695,1.087 -1.36,1.087 l -1.43,0 C -3.499,1.397 -4.061,0.923 -4.194,0.291 -4.214,0.197 -4.226,0.1 -4.226,0 l 0,-21.852 c 0,-0.099 0.012,-0.197 0.032,-0.291 0.118,-0.557 0.568,-0.988 1.134,-1.084 0.077,-0.012 1.819,-0.012 1.895,0 0.559,0.094 1.004,0.517 1.128,1.066 0.022,0.099 0.037,0.203 0.037,0.309 L 0,0 z"
             style="fill:#808285;fill-opacity:1;fill-rule:nonzero;stroke:none"
             id="path26" />
        </g>
        <g
           id="g28"
           transform="translate(113.5082,777.7627)">
          <path
             inkscape:connector-curvature="0"
             d="m 0,0 c -0.048,0.005 -4.822,0.006 -4.865,0.002 -0.623,-0.059 -1.127,-0.519 -1.242,-1.123 -0.016,-0.085 -0.016,-1.853 0,-1.938 0.112,-0.59 0.594,-1.043 1.197,-1.119 0.056,-0.007 1.999,0 1.999,0 l 0,-2.586 c -1.573,-1.009 -3.528,-1.514 -5.865,-1.514 -2.337,0 -4.328,0.793 -5.971,2.378 -1.645,1.585 -2.466,3.686 -2.466,6.305 0,2.618 0.845,4.733 2.536,6.341 1.691,1.608 3.781,2.413 6.271,2.413 1.291,0 2.425,-0.158 3.399,-0.475 0.595,-0.194 1.187,-0.494 1.778,-0.875 0.021,-0.015 0.098,-0.066 0.119,-0.078 0.609,-0.35 1.37,-0.191 1.794,0.365 0.021,0.029 0.767,1.091 0.783,1.12 0.308,0.558 0.185,1.231 -0.268,1.663 -0.062,0.059 -0.336,0.237 -0.412,0.268 -2.103,1.391 -4.601,2.098 -7.511,2.098 -3.546,0 -6.569,-1.221 -9.071,-3.663 -2.501,-2.442 -3.751,-5.495 -3.751,-9.159 0,-3.664 1.227,-6.694 3.681,-9.088 2.454,-2.397 5.501,-3.594 9.141,-3.594 4.322,0 7.645,1.28 9.97,3.84 0,0 0.002,7.101 0,7.133 C 1.199,-0.608 0.672,-0.068 0,0"
             style="fill:#808285;fill-opacity:1;fill-rule:nonzero;stroke:none"
             id="path30" />
        </g>
        <g
           id="g32"
           transform="translate(41.8597,788.6689)">
          <path
             inkscape:connector-curvature="0"
             d="M 0,0 C -0.002,-0.797 -0.002,-2.427 -0.003,-4.452 L 0,-4.452 0,0 z"
             style="fill:#d71920;fill-opacity:1;fill-rule:nonzero;stroke:none"
             id="path34" />
        </g>
        <g
           id="g36"
           transform="translate(46.0111,784.2168)">
          <path
             inkscape:connector-curvature="0"
             d="m 0,0 c 0.001,-3.432 0.001,-7.99 0,-11.563 l 0.008,0 L 0.008,0 0,0 z"
             style="fill:#d71920;fill-opacity:1;fill-rule:nonzero;stroke:none"
             id="path38" />
        </g>
        <g
           id="g40"
           transform="translate(41.8568,784.2168)">
          <path
             inkscape:connector-curvature="0"
             d="m 0,0 -0.008,0 0,-11.563 0.008,0 C -0.001,-7.99 -0.001,-3.432 0,0"
             style="fill:#d71920;fill-opacity:1;fill-rule:nonzero;stroke:none"
             id="path42" />
        </g>
        <g
           id="g44"
           transform="translate(46.0082,784.2168)">
          <path
             inkscape:connector-curvature="0"
             d="M 0,0 0.003,0 C 0.002,2.028 0.002,3.659 0,4.455 L 0,0 z"
             style="fill:#d71920;fill-opacity:1;fill-rule:nonzero;stroke:none"
             id="path46" />
        </g>
        <g
           id="g48"
           transform="translate(46.0062,766.9756)">
          <path
             inkscape:connector-curvature="0"
             d="m 0,0 c 0.001,0.006 0.001,22.222 0,22.228 -0.088,0.658 -0.629,1.168 -1.303,1.206 -0.004,10e-4 -1.535,10e-4 -1.539,0 -0.674,-0.038 -1.215,-0.548 -1.303,-1.206 -0.001,-0.006 -0.001,-22.222 0,-22.228 0.082,-0.607 0.547,-1.089 1.148,-1.19 0.017,-0.003 1.833,-0.003 1.85,0 0.6,0.101 1.066,0.583 1.147,1.19"
             style="fill:#d71920;fill-opacity:1;fill-rule:nonzero;stroke:none"
             id="path50" />
        </g>
        <g
           id="g52"
           transform="translate(62.8607,783.9912)">
          <path
             inkscape:connector-curvature="0"
             d="m 0,0 c -0.579,1.213 -1.358,2.283 -2.364,3.194 -0.215,0.196 -0.449,0.371 -0.68,0.548 -2.287,1.748 -5.388,2.642 -9.309,2.67 0,0 -0.051,0.005 -0.079,0.003 -0.671,-0.049 -0.999,-0.486 -1.036,-1.051 -0.002,-0.015 -0.002,-1.716 0,-1.731 -0.01,-0.579 0.459,-1.079 1.078,-1.064 0.013,0 0.024,-0.008 0.037,-0.01 l 0,0.009 c 6.231,-0.097 9.355,-2.907 9.355,-8.444 0,-2.771 -0.793,-4.867 -2.378,-6.288 -1.585,-1.421 -3.869,-2.132 -6.852,-2.132 0,0 -0.163,10e-4 -0.2,0 -0.737,-0.01 -1.05,-0.541 -1.04,-1.071 -0.002,-0.015 -0.002,-1.759 0,-1.776 0.006,-0.725 0.537,-1.022 0.979,-1.05 0.057,-0.004 0.165,0.006 0.165,0.006 2.705,0.048 5.011,0.46 6.89,1.262 1.236,0.527 2.296,1.214 3.175,2.067 0.955,0.924 1.7,1.996 2.259,3.196 0.788,1.693 1.194,3.651 1.194,5.891 C 1.194,-3.565 0.787,-1.647 0,0"
             style="fill:#808285;fill-opacity:1;fill-rule:nonzero;stroke:none"
             id="path54" />
        </g>
        <g
           id="g56"
           transform="translate(89.9252,767.458)">
          <path
             inkscape:connector-curvature="0"
             d="m 0,0 c -0.036,0.124 -2.603,5.906 -2.603,5.906 0,0 -7.101,16.151 -7.158,16.245 -0.231,0.387 -0.641,0.65 -1.118,0.676 -0.025,10e-4 -2.777,10e-4 -2.803,0 -0.454,-0.025 -0.851,-0.262 -1.088,-0.618 -0.082,-0.123 -9.739,-22.079 -9.768,-22.171 -0.044,-0.136 -0.074,-0.278 -0.074,-0.429 0,-0.772 0.626,-1.398 1.398,-1.398 l 1.43,0 c 0.472,0 0.888,0.236 1.141,0.596 0.106,0.15 1.846,4.267 1.938,4.402 0.226,0.33 0.592,0.552 1.01,0.596 l 0.291,0 c 0,0 6.499,-0.002 6.525,0 0.492,0.041 0.883,0.441 0.883,0.945 0,0.076 -0.026,0.145 -0.043,0.216 -0.028,0.118 -0.847,1.972 -0.959,2.17 -0.287,0.505 -0.803,0.52 -1.399,0.509 l -3.085,0 c -0.463,0.068 -0.826,0.45 -0.826,0.933 0,0.047 0.021,0.088 0.028,0.134 0,0 3.144,7.158 3.188,7.229 0.168,0.278 0.46,0.472 0.808,0.472 0.375,0 0.69,-0.221 0.848,-0.533 0.012,-0.024 1.451,-3.284 2.374,-5.38 L -5.618,2.708 -5.62,2.707 c 0.5,-1.133 1.627,-3.778 1.702,-3.887 0.252,-0.368 0.674,-0.609 1.153,-0.609 l 1.43,0 c 0.772,0 1.398,0.626 1.398,1.398 C 0.063,-0.254 0.037,-0.125 0,0"
             style="fill:#808285;fill-opacity:1;fill-rule:nonzero;stroke:none"
             id="path58" />
        </g>
      </g>
    </g>
  </g>
</svg>
