<?xml version="1.0" encoding="utf-8"?>
<!-- Generator: Adobe Illustrator 23.0.6, SVG Export Plug-In . SVG Version: 6.00 Build 0)  -->
<svg version="1.1" id="Layer_1" xmlns="http://www.w3.org/2000/svg" xmlns:xlink="http://www.w3.org/1999/xlink" x="0px" y="0px"
	 width="500px" height="164px" viewBox="0 0 500 164" style="enable-background:new 0 0 500 164;" xml:space="preserve">
<style type="text/css">
	.st0{fill:#00609C;}
	.st1{fill:#54C0E8;}
</style>
<g>
	<g>
		<g>
			<g>
				<path class="st0" d="M64.9,81.2C60,87.4,51.8,91,43.8,91C28.4,91,16,80.8,16,64.8s12.4-26.3,27.8-26.3
					c14.4,0,23.5,10.3,23.5,26.3v4.8H31.4c1.2,5.9,5.7,9.7,11.6,9.7c5,0,8.4-2.6,11-6.1L64.9,81.2z M51.8,59.1
					c0.1-5.1-3.9-9.5-9.5-9.5c-6.8,0-10.5,4.6-10.9,9.5H51.8z"/>
				<path class="st0" d="M74.3,12h15.4v77.8H74.3V12z"/>
				<path class="st0" d="M106.2,15.1c4.9,0,9,4,9,9c0,4.9-4,9-9,9c-4.9,0-9-4-9-9S101.2,15.1,106.2,15.1z M98.5,39.8h15.4v50H98.5
					V39.8z"/>
				<path class="st0" d="M123.9,39.8h14.2v6.6h0.2c2.4-3.6,8.3-7.8,15.3-7.8c14.8,0,24.6,10.7,24.6,25.8c0,13.9-8.6,26.7-22.9,26.7
					c-6.4,0-12.4-1.7-15.9-6.6h-0.2v28.8h-15.4L123.9,39.8L123.9,39.8z M150.5,77.5c7.7,0,12.3-5.1,12.3-12.7
					c0-7.5-4.6-12.7-12.3-12.7s-12.3,5.1-12.3,12.7C138.1,72.3,142.7,77.5,150.5,77.5z"/>
				<path class="st0" d="M213,54.5c-2.3-2.8-5.3-4.2-9-4.2c-2.6,0-5.7,1.1-5.7,4.1c0,7.4,26,1.1,26,20.2c0,12.8-12.4,16.5-23.1,16.5
					c-7,0-14.7-1.7-19.7-6.8l9.4-10.4c2.9,3.5,6.3,5.5,10.9,5.5c3.5,0,7-0.9,7-3.6c0-8-26-1.2-26-20.3c0-11.7,10.5-16.9,21-16.9
					c6.6,0,13.9,1.6,18.5,6.6L213,54.5z"/>
				<path class="st0" d="M277.2,81.2c-4.9,6.3-13.1,9.9-21.1,9.9c-15.4,0-27.8-10.3-27.8-26.2c0-16,12.4-26.3,27.8-26.3
					c14.4,0,23.5,10.3,23.5,26.3v4.8h-35.8c1.2,5.9,5.7,9.7,11.6,9.7c5,0,8.4-2.6,11-6.1L277.2,81.2z M264.1,59.1
					c0.1-5.1-3.9-9.5-9.5-9.5c-6.8,0-10.5,4.6-10.9,9.5H264.1z"/>
			</g>
		</g>
		<g>
			<g>
				<path class="st0" d="M483.1,74.1c0.7-2.7,0.9-5.1,0.9-7.8c0-14.4-8.7-26.8-25.9-37.1c-1.1-0.5-2.1-1.1-3-1.6
					c-0.2-0.2-0.4-0.2-0.5-0.2c-16.7-9.1-36.4-13.5-59.1-13.5h-1.1c17,0.9,31.9,6.6,44.7,16.7c14.2,11.4,21.3,25,21.3,41
					c0,15.4-6.7,28.8-19.9,39.8c5.1-2,9.6-4.1,13.8-6.2c1.2-0.5,2.5-1.4,3.7-2C472.1,94.8,480.5,85.1,483.1,74.1z"/>
				<path class="st0" d="M348.4,22.6c2.8-1.4,5.7-2.7,8.5-3.9c-2.1,0.7-4.4,1.4-6.4,2.1c-6.6,2.3-12.4,5.1-18.1,8.3
					c-4.8,3-9.1,6-12.6,9.2c-5.7,5.5-9.6,11.4-11.7,17.8c-1.1,3.2-1.6,6.6-1.6,10.1c0,10.3,4.6,19.7,13.8,28.2
					c-3.7-7.3-5.7-14.9-5.7-22.9c0-16.2,7.1-29.8,21.5-41C339.9,27.6,344,24.9,348.4,22.6z"/>
				<path class="st1" d="M345.4,107.4c0.7,0.5,1.6,1.1,2.3,1.6c-13-12.1-19.5-26.3-19.5-43c0-11.7,3.2-22.4,9.8-31.8
					c-12.4,9.8-18.6,21.1-18.5,34.1C319.3,83.7,328,96.6,345.4,107.4z"/>
			</g>
		</g>
	</g>
	<g>
		<path class="st0" d="M16,130h6.4c3.9,0,7.5,1.4,7.5,5.9c0,4.7-4,6-7,6h-4.3v9.7H16V130z M18.6,139.5h4.3c2.5,0,4.3-1.2,4.3-3.6
			s-1.8-3.6-4.3-3.6h-4.3C18.6,132.3,18.6,139.5,18.6,139.5z"/>
		<path class="st0" d="M36.4,140.7c0-6.5,4.7-11.3,11.2-11.3s11.2,4.8,11.2,11.3S54.1,152,47.6,152S36.4,147.2,36.4,140.7z
			 M56.1,140.7c0-4.9-3.5-8.9-8.5-8.9s-8.5,4-8.5,8.9s3.5,8.9,8.5,8.9C52.7,149.7,56.1,145.7,56.1,140.7z"/>
		<path class="st0" d="M64.1,130h2.8l4.9,17.9h0.1l5.3-17.9H80l5.3,17.9h0.1l5-17.9H93l-6.3,21.5h-2.8l-5.3-18.2h-0.1l-5.3,18.2
			h-2.8L64.1,130z"/>
		<path class="st0" d="M99.5,130H113v2.4h-11v6.7h10.2v2.4H102v7.7h11.5v2.4h-14V130z"/>
		<path class="st0" d="M121.1,130h5.5c4.2,0,8.6,0.6,8.6,5.9c0,3.1-2,5.2-5.4,5.7l6.1,9.9h-3.1l-5.8-9.7h-3.3v9.7h-2.6V130z
			 M123.7,139.5h2.3c2.8,0,6.5,0,6.5-3.6c0-3.1-2.7-3.6-5.2-3.6h-3.6C123.7,132.3,123.7,139.5,123.7,139.5z"/>
		<path class="st0" d="M165.6,133.8c-0.9-1.4-2.4-2-3.9-2c-2.2,0-4.6,1.1-4.6,3.6c0,2,1.1,2.9,4.5,4c3.3,1.1,6.4,2.2,6.4,6.4
			c0,4.3-3.7,6.3-7.6,6.3c-2.5,0-5.2-0.8-6.6-3l2.2-1.8c0.9,1.6,2.7,2.4,4.6,2.4c2.2,0,4.7-1.3,4.7-3.7c0-2.6-1.8-3.1-5.6-4.4
			c-3-1-5.3-2.3-5.3-5.9c0-4.1,3.6-6.2,7.3-6.2c2.4,0,4.4,0.7,6,2.5L165.6,133.8z"/>
		<path class="st0" d="M192,143.3c0,4.7-2.2,8.7-8.1,8.7c-5.9,0-8.1-4.1-8.1-8.7V130h2.6v12.9c0,3.5,1.3,6.7,5.6,6.7
			s5.6-3.3,5.6-6.7V130h2.6v13.3H192z"/>
		<path class="st0" d="M200.9,130h6.4c3.9,0,7.5,1.4,7.5,5.9c0,4.7-4,6-7,6h-4.3v9.7h-2.6L200.9,130L200.9,130z M203.4,139.5h4.3
			c2.5,0,4.3-1.2,4.3-3.6s-1.8-3.6-4.3-3.6h-4.3V139.5z"/>
		<path class="st0" d="M222.5,130h6.4c3.9,0,7.5,1.4,7.5,5.9c0,4.7-4,6-7,6h-4.3v9.7h-2.5L222.5,130L222.5,130z M225.1,139.5h4.3
			c2.6,0,4.3-1.2,4.3-3.6s-1.8-3.6-4.3-3.6h-4.3V139.5z"/>
		<path class="st0" d="M244.2,130h2.5v19.1h9.8v2.4h-12.4L244.2,130L244.2,130z"/>
		<path class="st0" d="M264.7,142.2l-8-12.2h3.2l6,9.7l6.2-9.7h3.1l-8,12.2v9.3h-2.5L264.7,142.2L264.7,142.2z"/>
		<path class="st0" d="M303.6,133.8c-0.9-1.4-2.4-2-3.9-2c-2.2,0-4.6,1.1-4.6,3.6c0,2,1.1,2.9,4.5,4c3.3,1.1,6.4,2.2,6.4,6.4
			c0,4.3-3.7,6.3-7.6,6.3c-2.5,0-5.2-0.8-6.6-3l2.2-1.8c0.9,1.6,2.7,2.4,4.6,2.4c2.2,0,4.7-1.3,4.7-3.7c0-2.6-1.8-3.1-5.6-4.4
			c-3-1-5.3-2.3-5.3-5.9c0-4.1,3.6-6.2,7.3-6.2c2.4,0,4.4,0.7,6,2.5L303.6,133.8z"/>
		<path class="st0" d="M313.9,130h6.4c3.9,0,7.5,1.4,7.5,5.9c0,4.7-4,6-7,6h-4.3v9.7H314V130H313.9z M316.4,139.5h4.3
			c2.6,0,4.3-1.2,4.3-3.6s-1.8-3.6-4.3-3.6h-4.3V139.5z"/>
		<path class="st0" d="M335.5,130H349v2.4h-11v6.7h10.2v2.4H338v7.7h11.5v2.4h-14.1V130H335.5z"/>
		<path class="st0" d="M372.2,134.4c-1.3-1.7-3.3-2.6-5.4-2.6c-4.8,0-8.2,4.2-8.2,8.9c0,5,3.4,8.9,8.2,8.9c2.6,0,4.7-1.1,6.2-3
			l1.9,1.6c-1.9,2.6-4.7,3.8-8.1,3.8c-6.2,0-10.9-4.8-10.9-11.3c0-6.3,4.6-11.3,10.9-11.3c2.9,0,5.8,1,7.6,3.4L372.2,134.4z"/>
		<path class="st0" d="M382.2,130h2.6v21.5h-2.6V130z"/>
		<path class="st0" d="M400.7,130h2.4l9.1,21.5h-3l-2.2-5.3h-10.7l-2.2,5.3h-2.9L400.7,130z M401.8,133.3L401.8,133.3l-4.5,10.6h8.8
			L401.8,133.3z"/>
		<path class="st0" d="M418.7,130h2.6v19.1h9.8v2.4h-12.4V130z"/>
		<path class="st0" d="M437.5,130h2.6v21.5h-2.6V130z"/>
		<path class="st0" d="M459.3,133.8c-0.9-1.4-2.4-2-3.9-2c-2.2,0-4.6,1.1-4.6,3.6c0,2,1.1,2.9,4.5,4c3.3,1.1,6.4,2.2,6.4,6.4
			c0,4.3-3.7,6.3-7.6,6.3c-2.5,0-5.2-0.8-6.6-3l2.2-1.8c0.9,1.6,2.7,2.4,4.6,2.4c2.2,0,4.7-1.3,4.7-3.7c0-2.6-1.8-3.1-5.6-4.4
			c-3-1-5.3-2.3-5.3-5.9c0-4.1,3.6-6.2,7.3-6.2c2.4,0,4.4,0.7,6,2.5L459.3,133.8z"/>
		<path class="st0" d="M484,132.3h-7.1v19.1h-2.5v-19.1h-7.1V130H484V132.3z"/>
	</g>
</g>
</svg>
