<?xml version="1.0" encoding="utf-8"?>
<!-- Generator: Adobe Illustrator 23.0.4, SVG Export Plug-In . SVG Version: 6.00 Build 0)  -->
<svg version="1.1" id="Layer_1" xmlns="http://www.w3.org/2000/svg" xmlns:xlink="http://www.w3.org/1999/xlink" x="0px" y="0px"
	 viewBox="34 29 92 30" style="enable-background:new 0 0 368.5 340.16;" xml:space="preserve">
<style type="text/css">
	.st0{fill:#2F7BB2;}
	.st1{fill:#FFFFFF;}
	.st2{fill:#9999A2;}
</style>
<circle class="st0" cx="46.36" cy="41.21" r="11.72"/>
<g>
	<g>
		<path class="st1" d="M41.73,35.14h0.97v5.49h7.53v-5.49h0.97v12.6h-0.97v-6.21H42.7v6.21h-0.97V35.14z"/>
	</g>
</g>
<g>
	<g>
		<path class="st2" d="M83.46,51.19H81.5v-0.64h4.66v0.64h-1.95v5.27h-0.76V51.19z"/>
		<path class="st2" d="M88.05,54.26c0-1.42,1.06-2.29,2.23-2.29c1.26,0,2,0.82,2,2.05c0,0.17-0.02,0.33-0.04,0.45h-3.7V53.9h3.26
			l-0.19,0.21c0-1.04-0.51-1.55-1.31-1.55c-0.81,0-1.51,0.61-1.51,1.7c0,1.13,0.74,1.71,1.71,1.71c0.52,0,0.94-0.16,1.33-0.41
			l0.27,0.49c-0.43,0.29-0.99,0.52-1.69,0.52C89.09,56.56,88.05,55.72,88.05,54.26z"/>
		<path class="st2" d="M95.95,54.99v-4.34H94.4v-0.6h2.3v5c0,0.63,0.34,0.9,0.86,0.9c0.25,0,0.52-0.06,0.82-0.2l0.19,0.56
			c-0.41,0.17-0.69,0.26-1.17,0.26C96.46,56.56,95.95,56.02,95.95,54.99z"/>
		<path class="st2" d="M100.65,54.26c0-1.42,1.06-2.29,2.23-2.29c1.26,0,2,0.82,2,2.05c0,0.17-0.02,0.33-0.04,0.45h-3.7V53.9h3.26
			l-0.19,0.21c0-1.04-0.51-1.55-1.31-1.55c-0.81,0-1.51,0.61-1.51,1.7c0,1.13,0.74,1.71,1.71,1.71c0.52,0,0.94-0.16,1.33-0.41
			l0.27,0.49c-0.43,0.29-0.99,0.52-1.69,0.52C101.69,56.56,100.65,55.72,100.65,54.26z"/>
		<path class="st2" d="M107.06,54.28c0-1.47,1.12-2.3,2.44-2.3c0.71,0,1.23,0.29,1.59,0.64l-0.37,0.48c-0.36-0.31-0.74-0.5-1.2-0.5
			c-1.01,0-1.7,0.68-1.7,1.68c0,1,0.68,1.67,1.68,1.67c0.54,0,0.99-0.24,1.35-0.55l0.33,0.49c-0.49,0.43-1.09,0.68-1.74,0.68
			C108.08,56.56,107.06,55.73,107.06,54.28z"/>
		<path class="st2" d="M113.18,54.28c0-1.47,1.01-2.3,2.16-2.3s2.16,0.84,2.16,2.3c0,1.45-1.01,2.29-2.16,2.29
			S113.18,55.73,113.18,54.28z M116.73,54.28c0-1.01-0.56-1.68-1.4-1.68c-0.84,0-1.4,0.68-1.4,1.68c0,1,0.56,1.67,1.4,1.67
			C116.17,55.94,116.73,55.28,116.73,54.28z"/>
		<path class="st2" d="M119.46,52.08h0.59l0.06,0.58h0.02c0.23-0.4,0.5-0.68,1-0.68c0.43,0,0.7,0.25,0.83,0.76
			c0.25-0.47,0.52-0.76,1.03-0.76c0.61,0,0.97,0.48,0.97,1.35v3.13h-0.74v-3.08c0-0.5-0.14-0.77-0.47-0.77
			c-0.31,0-0.47,0.23-0.7,0.68v3.17h-0.68v-3.08c0-0.5-0.13-0.77-0.45-0.77c-0.31,0-0.5,0.23-0.72,0.68v3.17h-0.74V52.08z"/>
	</g>
</g>
<g>
	<g>
		<path d="M68.25,41.55h-6.43v5.29h7.04l-0.14,0.9h-7.87v-12.6h7.72v0.9h-6.75v4.61h6.43V41.55z"/>
		<path d="M74.13,41.85v5.89h-0.99v-12.6h4.52c2.48,0,3.8,1.33,3.8,3.31c0,1.6-0.95,2.65-2.36,2.95c1.3,0.31,2.16,1.15,2.16,3.29
			v0.49c0,0.88-0.07,2.07,0.16,2.56h-0.99c-0.23-0.54-0.18-1.55-0.18-2.63v-0.32c0-2.07-0.61-2.93-3.02-2.93H74.13z M74.13,40.95
			h3.04c2.21,0,3.24-0.83,3.24-2.48c0-1.55-1.01-2.43-2.97-2.43h-3.31V40.95z"/>
		<path d="M97.16,41.94c0-2.47,0.02-4.83,0.07-6.09h-0.05c-0.5,1.69-3.06,7.9-4.66,11.88h-0.95c-1.21-3.08-3.85-9.99-4.43-11.9
			h-0.04c0.09,1.44,0.13,4.38,0.13,6.54v5.37h-0.97v-12.6h1.46c1.73,4.32,3.91,9.97,4.38,11.4h0.04c0.29-0.92,2.81-7.2,4.57-11.4
			h1.44v12.6h-0.97V41.94z"/>
		<path d="M110.85,41.55h-6.43v5.29h7.04l-0.14,0.9h-7.87v-12.6h7.72v0.9h-6.75v4.61h6.43V41.55z"/>
		<path d="M115.84,44.36c0.38,1.67,1.49,2.66,3.56,2.66c2.3,0,3.19-1.15,3.19-2.52c0-1.42-0.63-2.3-3.4-2.99
			c-2.67-0.67-3.82-1.53-3.82-3.35c0-1.66,1.21-3.2,3.91-3.2c2.77,0,3.94,1.69,4.11,3.22h-1.01c-0.29-1.35-1.17-2.32-3.15-2.32
			c-1.82,0-2.81,0.85-2.81,2.25c0,1.39,0.83,1.93,3.15,2.5c3.55,0.88,4.07,2.3,4.07,3.82c0,1.85-1.35,3.46-4.27,3.46
			c-3.15,0-4.3-1.84-4.54-3.53H115.84z"/>
	</g>
</g>
</svg>
