<svg id="Layer_1" data-name="Layer 1" xmlns="http://www.w3.org/2000/svg" width="2400" height="500" viewBox="0 0 2400 500">
  <g>
    <rect x="1100" y="100" width="100" height="100" transform="translate(1000 1300) rotate(-90)" style="fill: none"/>
    <polygon points="1125 200 1125 175 1100 175 1125 200"/>
    <polygon points="1125 175 1125 150 1100 150 1125 175"/>
    <polygon points="1125 150 1125 125 1100 125 1125 150"/>
    <polygon points="1125 125 1125 100 1100 100 1125 125"/>
    <polygon points="1150 200 1150 175 1125 175 1150 200"/>
    <polygon points="1175 200 1175 175 1150 175 1175 200"/>
    <polygon points="1150 175 1150 150 1125 150 1150 175"/>
    <polygon points="1150 125 1150 100 1125 100 1150 125"/>
    <polygon points="1150 150 1150 125 1125 125 1150 150"/>
    <polygon points="1200 125 1200 100 1175 100 1200 125"/>
    <polygon points="1200 150 1200 125 1175 125 1200 150"/>
    <polygon points="1200 175 1200 150 1175 150 1200 175"/>
    <polygon points="1200 200 1200 175 1175 175 1200 200"/>
    <polygon points="1175 150 1175 125 1150 125 1175 150"/>
    <polygon points="1175 125 1175 100 1150 100 1175 125"/>
    <polygon points="1175 175 1175 150 1150 150 1175 175"/>
  </g>
  <g>
    <rect x="900" y="400" width="100" height="100" transform="translate(500 1400) rotate(-90)" style="fill: none"/>
    <polygon points="925 500 925 475 900 475 925 500"/>
    <polygon points="925 475 925 450 900 450 925 475"/>
    <polygon points="925 450 925 425 900 425 925 450"/>
    <polygon points="925 425 925 400 900 400 925 425"/>
    <polygon points="950 500 950 475 925 475 950 500"/>
    <polygon points="975 500 975 475 950 475 975 500"/>
    <polygon points="950 475 950 450 925 450 950 475"/>
    <polygon points="950 425 950 400 925 400 950 425"/>
    <polygon points="950 450 950 425 925 425 950 450"/>
    <polygon points="1000 425 1000 400 975 400 1000 425"/>
    <polygon points="1000 450 1000 425 975 425 1000 450"/>
    <polygon points="1000 475 1000 450 975 450 1000 475"/>
    <polygon points="1000 500 1000 475 975 475 1000 500"/>
    <polygon points="975 450 975 425 950 425 975 450"/>
    <polygon points="975 425 975 400 950 400 975 425"/>
    <polygon points="975 475 975 450 950 450 975 475"/>
  </g>
  <g>
    <rect x="300" y="400" width="100" height="100" style="fill: none"/>
    <polygon points="300 425 325 425 325 400 300 425"/>
    <polygon points="325 425 350 425 350 400 325 425"/>
    <polygon points="350 425 375 425 375 400 350 425"/>
    <polygon points="375 425 400 425 400 400 375 425"/>
    <polygon points="300 450 325 450 325 425 300 450"/>
    <polygon points="300 475 325 475 325 450 300 475"/>
    <polygon points="325 450 350 450 350 425 325 450"/>
    <polygon points="375 450 400 450 400 425 375 450"/>
    <polygon points="350 450 375 450 375 425 350 450"/>
    <polygon points="375 500 400 500 400 475 375 500"/>
    <polygon points="350 500 375 500 375 475 350 500"/>
    <polygon points="325 500 350 500 350 475 325 500"/>
    <polygon points="300 500 325 500 325 475 300 500"/>
    <polygon points="350 475 375 475 375 450 350 475"/>
    <polygon points="375 475 400 475 400 450 375 475"/>
    <polygon points="325 475 350 475 350 450 325 475"/>
  </g>
  <g>
    <rect x="600" width="200" height="100" style="fill: none"/>
    <g>
      <polygon points="688.18 50 641.59 3.41 638.41 6.59 681.82 50 638.41 93.41 641.59 96.59 688.18 50"/>
      <polygon points="733.18 50 686.59 3.41 683.41 6.59 726.82 50 683.41 93.41 686.59 96.59 733.18 50"/>
      <polygon points="623.41 6.59 666.82 50 623.41 93.41 626.59 96.59 673.18 50 626.59 3.41 623.41 6.59"/>
      <polygon points="718.18 50 671.59 3.41 668.41 6.59 711.82 50 668.41 93.41 671.59 96.59 718.18 50"/>
      <polygon points="703.18 50 656.59 3.41 653.41 6.59 696.82 50 653.41 93.41 656.59 96.59 703.18 50"/>
      <polygon points="628.18 50 600 21.82 600 28.18 621.82 50 600 71.82 600 78.18 628.18 50"/>
      <polygon points="600 63.18 613.18 50 600 36.82 600 43.18 606.82 50 600 56.82 600 63.18"/>
      <polygon points="643.18 50 600 6.82 600 13.18 636.82 50 600 86.82 600 93.18 643.18 50"/>
      <polygon points="658.18 50 611.59 3.41 608.41 6.59 651.82 50 608.41 93.41 611.59 96.59 658.18 50"/>
      <polygon points="778.18 50 731.59 3.41 728.41 6.59 771.82 50 728.41 93.41 731.59 96.59 778.18 50"/>
      <polygon points="800 73.18 800 66.82 773.41 93.41 776.59 96.59 800 73.18"/>
      <polygon points="800 58.18 800 51.82 758.41 93.41 761.59 96.59 800 58.18"/>
      <polygon points="788.41 6.59 800 18.18 800 11.82 791.59 3.41 788.41 6.59"/>
      <polygon points="748.18 50 701.59 3.41 698.41 6.59 741.82 50 698.41 93.41 701.59 96.59 748.18 50"/>
      <polygon points="800 81.82 788.41 93.41 791.59 96.59 800 88.18 800 81.82"/>
      <polygon points="793.18 50 746.59 3.41 743.41 6.59 786.82 50 743.41 93.41 746.59 96.59 793.18 50"/>
      <polygon points="763.18 50 716.59 3.41 713.41 6.59 756.82 50 713.41 93.41 716.59 96.59 763.18 50"/>
      <polygon points="758.41 6.59 800 48.18 800 41.82 761.59 3.41 758.41 6.59"/>
      <polygon points="773.41 6.59 800 33.18 800 26.82 776.59 3.41 773.41 6.59"/>
    </g>
  </g>
  <g>
    <rect x="100" y="0.37" width="100" height="100" style="fill: none"/>
    <path d="M200,100.37V.37H100V33.7C145,33.7,165,100.37,200,100.37Z"/>
  </g>
  <g>
    <rect x="200" y="0.37" width="100" height="100" style="fill: none"/>
    <path d="M266.67,17.86V.37H233.33V17.86a24.81,24.81,0,0,0,4.17,13.76h0a24.76,24.76,0,0,1,4.17,13.76v10a24.81,24.81,0,0,1-4.17,13.76h0a24.76,24.76,0,0,0-4.17,13.76v17.49h33.34V82.88a24.76,24.76,0,0,0-4.17-13.76h0a24.81,24.81,0,0,1-4.17-13.76v-10a24.76,24.76,0,0,1,4.17-13.76h0A24.81,24.81,0,0,0,266.67,17.86Z"/>
    <path d="M200,25.37a12.5,12.5,0,0,0,0-25Z"/>
    <path d="M200,50.37a12.5,12.5,0,1,0,0-25Z"/>
    <path d="M200,75.37a12.5,12.5,0,0,0,0-25Z"/>
    <path d="M200,100.37a12.5,12.5,0,0,0,0-25Z"/>
    <path d="M300,75.37a12.5,12.5,0,0,0,0,25Z"/>
    <path d="M300,50.37a12.5,12.5,0,1,0,0,25Z"/>
    <path d="M300,25.37a12.5,12.5,0,0,0,0,25Z"/>
    <path d="M300,.37a12.5,12.5,0,0,0,0,25Z"/>
  </g>
  <g>
    <rect x="1600" y="400" width="100" height="100" style="fill: none"/>
    <path d="M1666.67,417.49V400h-33.34v17.49a24.79,24.79,0,0,0,4.17,13.76h0a24.79,24.79,0,0,1,4.17,13.76v10a24.79,24.79,0,0,1-4.17,13.76h0a24.79,24.79,0,0,0-4.17,13.76V500h33.34V482.51a24.79,24.79,0,0,0-4.17-13.76h0a24.79,24.79,0,0,1-4.17-13.76V445a24.79,24.79,0,0,1,4.17-13.76h0A24.79,24.79,0,0,0,1666.67,417.49Z"/>
    <path d="M1600,425a12.5,12.5,0,0,0,0-25Z"/>
    <path d="M1600,450a12.5,12.5,0,0,0,0-25Z"/>
    <path d="M1600,475a12.5,12.5,0,0,0,0-25Z"/>
    <path d="M1600,500a12.5,12.5,0,0,0,0-25Z"/>
    <path d="M1700,475a12.5,12.5,0,0,0,0,25Z"/>
    <path d="M1700,450a12.5,12.5,0,0,0,0,25Z"/>
    <path d="M1700,425a12.5,12.5,0,0,0,0,25Z"/>
    <path d="M1700,400a12.5,12.5,0,0,0,0,25Z"/>
  </g>
  <g>
    <rect x="1300" y="400" width="100" height="100" transform="translate(1800 -900) rotate(90)" style="fill: none"/>
    <path d="M1382.51,466.67H1400V433.33h-17.49a24.79,24.79,0,0,0-13.76,4.17h0a24.79,24.79,0,0,1-13.76,4.17h-10a24.79,24.79,0,0,1-13.76-4.17h0a24.79,24.79,0,0,0-13.76-4.17H1300v33.34h17.49a24.79,24.79,0,0,0,13.76-4.17h0a24.79,24.79,0,0,1,13.76-4.17h10a24.79,24.79,0,0,1,13.76,4.17h0A24.79,24.79,0,0,0,1382.51,466.67Z"/>
    <path d="M1375,400a12.5,12.5,0,0,0,25,0Z"/>
    <path d="M1350,400a12.5,12.5,0,0,0,25,0Z"/>
    <path d="M1325,400a12.5,12.5,0,0,0,25,0Z"/>
    <path d="M1300,400a12.5,12.5,0,0,0,25,0Z"/>
    <path d="M1325,500a12.5,12.5,0,0,0-25,0Z"/>
    <path d="M1350,500a12.5,12.5,0,0,0-25,0Z"/>
    <path d="M1375,500a12.5,12.5,0,0,0-25,0Z"/>
    <path d="M1400,500a12.5,12.5,0,0,0-25,0Z"/>
  </g>
  <g>
    <rect x="300" y="0.37" width="100" height="100" style="fill: none"/>
    <path d="M300,50.37a12.5,12.5,0,0,0,0-25Z"/>
    <path d="M300,100.37a12.5,12.5,0,0,0,0-25Z"/>
    <path d="M400,50.37c-24,0-39.19-7-52.63-13.2-13.18-6.07-25.63-11.8-47.37-11.8V.37c27.22,0,43.48,7.48,57.83,14.09,12.71,5.85,23.69,10.91,42.17,10.91Z"/>
    <path d="M400,100.37c-24,0-39.19-7-52.63-13.2-13.18-6.07-25.63-11.8-47.37-11.8v-25c27.22,0,43.48,7.48,57.83,14.09,12.71,5.85,23.69,10.91,42.17,10.91Z"/>
  </g>
  <g>
    <rect y="100.37" width="100" height="100" style="fill: none"/>
    <path d="M66.67,100.37a16.67,16.67,0,0,1-33.34,0Z"/>
    <rect y="154.53" width="25" height="45.83"/>
    <rect x="25" y="137.87" width="25" height="62.5"/>
    <rect x="50" y="175.37" width="25" height="25"/>
    <rect x="75" y="121.2" width="25" height="79.17"/>
  </g>
  <g>
    <rect x="300" y="200" width="100" height="100" transform="translate(600 -100) rotate(90)" style="fill: none"/>
    <path d="M400,266.67a16.67,16.67,0,0,1,0-33.34Z"/>
    <rect x="310.42" y="189.58" width="25" height="45.83" transform="translate(535.42 -110.42) rotate(90)"/>
    <rect x="318.75" y="206.25" width="25" height="62.5" transform="translate(568.75 -93.75) rotate(90)"/>
    <rect x="300" y="250" width="25" height="25" transform="translate(575 -50) rotate(90)"/>
    <rect x="327.08" y="247.92" width="25" height="79.17" transform="translate(627.08 -52.08) rotate(90)"/>
  </g>
  <g>
    <rect y="200" width="100" height="100" style="fill: none"/>
    <polygon points="33.33 200 0 200 0 233.33 33.33 200"/>
    <polygon points="66.67 233.33 66.67 200 33.33 200 66.67 233.33"/>
    <polygon points="100 233.33 100 200 66.67 200 100 233.33"/>
    <polygon points="33.33 233.33 0 233.33 0 266.67 33.33 233.33"/>
    <polygon points="0 266.67 0 300 33.33 300 0 266.67"/>
    <polygon points="33.33 266.67 33.33 300 66.67 300 33.33 266.67"/>
    <polygon points="33.33 266.67 66.67 266.67 66.67 233.33 33.33 266.67"/>
    <polygon points="100 266.67 100 233.33 66.67 233.33 100 266.67"/>
    <polygon points="100 300 100 266.67 66.67 266.67 100 300"/>
  </g>
  <g>
    <rect x="800" width="100" height="100" style="fill: none"/>
    <polygon points="825 0 800 0 800 25 825 0"/>
    <polygon points="850 25 850 0 825 0 850 25"/>
    <polygon points="875 0 850 0 850 25 875 0"/>
    <polygon points="875 25 900 25 900 0 875 25"/>
    <polygon points="800 25 800 50 825 50 800 25"/>
    <polygon points="850 50 850 25 825 25 850 50"/>
    <polygon points="900 25 875 25 875 50 900 25"/>
    <polygon points="850 50 875 50 875 25 850 50"/>
    <polygon points="875 100 900 100 900 75 875 100"/>
    <polygon points="850 100 875 100 875 75 850 100"/>
    <polygon points="825 100 850 100 850 75 825 100"/>
    <polygon points="825 75 800 75 800 100 825 75"/>
    <polygon points="875 75 875 50 850 50 875 75"/>
    <polygon points="875 50 875 75 900 75 875 50"/>
    <polygon points="825 75 850 75 850 50 825 75"/>
    <polygon points="850 50 825 50 825 75 850 50"/>
  </g>
  <g>
    <rect x="200" y="100.37" width="100" height="100" style="fill: none"/>
    <polygon points="266.67 100.37 233.33 100.37 250 200.37 266.67 100.37"/>
    <polygon points="233.33 100.37 200 100.37 216.67 200.37 233.33 100.37"/>
    <polygon points="300 100.37 266.67 100.37 283.33 200.37 300 100.37"/>
  </g>
  <g>
    <rect x="1500" y="200" width="100" height="100" style="fill: none"/>
    <polygon points="1566.67 200 1533.33 200 1550 300 1566.67 200"/>
    <polygon points="1533.33 200 1500 200 1516.67 300 1533.33 200"/>
    <polygon points="1600 200 1566.67 200 1583.33 300 1600 200"/>
  </g>
  <g>
    <rect x="2100" y="400" width="100" height="100" transform="translate(2600 -1700) rotate(90)" style="fill: none"/>
    <polygon points="2200 466.67 2200 433.33 2100 450 2200 466.67"/>
    <polygon points="2200 433.33 2200 400 2100 416.67 2200 433.33"/>
    <polygon points="2200 500 2200 466.67 2100 483.33 2200 500"/>
  </g>
  <g>
    <rect x="1100" y="300" width="100" height="100" transform="translate(1500 -800) rotate(90)" style="fill: none"/>
    <polygon points="1200 366.67 1200 333.33 1100 350 1200 366.67"/>
    <polygon points="1200 333.33 1200 300 1100 316.67 1200 333.33"/>
    <polygon points="1200 400 1200 366.67 1100 383.33 1200 400"/>
  </g>
  <g>
    <rect x="300" y="100.37" width="100" height="100" style="fill: none"/>
    <path d="M400,167c-52.17,0-43.48,33.34-100,33.34v-100c56.52,0,47.83,33.33,100,33.33Z"/>
    <circle cx="350" cy="150.37" r="16.67" style="fill: #fff"/>
  </g>
  <g>
    <rect x="400" y="0.37" width="100" height="100" style="fill: none"/>
    <rect x="400" y="25.37" width="100" height="25"/>
    <rect x="400" y="75.37" width="100" height="25"/>
  </g>
  <g>
    <rect x="400" y="400" width="100" height="100" transform="translate(900 900) rotate(180)" style="fill: none"/>
    <path d="M500,450a12.5,12.5,0,0,0,0,25Z"/>
    <path d="M500,400a12.5,12.5,0,0,0,0,25Z"/>
    <path d="M400,450c24,0,39.19,7,52.63,13.2C465.81,469.27,478.26,475,500,475v25c-27.22,0-43.48-7.49-57.83-14.09C429.46,480.05,418.48,475,400,475Z"/>
    <path d="M400,400c24,0,39.19,7,52.63,13.2C465.81,419.27,478.26,425,500,425v25c-27.22,0-43.48-7.49-57.83-14.09C429.46,430.05,418.48,425,400,425Z"/>
  </g>
  <g>
    <rect x="2000" y="300" width="100" height="100" transform="translate(4100 700) rotate(180)" style="fill: none"/>
    <path d="M2100,350a12.5,12.5,0,0,0,0,25Z"/>
    <path d="M2100,300a12.5,12.5,0,0,0,0,25Z"/>
    <path d="M2000,350c24,0,39.19,7,52.63,13.2,13.18,6.07,25.63,11.8,47.37,11.8v25c-27.22,0-43.48-7.49-57.83-14.09C2029.46,380.05,2018.48,375,2000,375Z"/>
    <path d="M2000,300c24,0,39.19,7,52.63,13.2,13.18,6.07,25.63,11.8,47.37,11.8v25c-27.22,0-43.48-7.49-57.83-14.09C2029.46,330.05,2018.48,325,2000,325Z"/>
  </g>
  <g>
    <rect x="600" y="400" width="100" height="100" transform="translate(1300 900) rotate(180)" style="fill: none"/>
    <rect x="600" y="450" width="100" height="25" transform="translate(1300 925) rotate(180)"/>
    <rect x="600" y="400" width="100" height="25" transform="translate(1300 825) rotate(180)"/>
  </g>
  <g>
    <rect x="400" y="100.37" width="100" height="100" style="fill: none"/>
    <path d="M500,125.37c-41.67,0-50,41.66-100,41.66V133.7c54.17,0,45.83-33.33,100-33.33Z"/>
  </g>
  <g>
    <rect x="900" width="100" height="100" style="fill: none"/>
    <path d="M1000,66.67c-52.17,0-43.48,33.33-100,33.33V0c56.52,0,47.83,33.33,100,33.33Z"/>
    <circle cx="950" cy="50" r="16.67" style="fill: #fff"/>
  </g>
  <g>
    <rect x="500" y="0.37" width="100" height="100" style="fill: none"/>
    <rect x="500" y="25.37" width="50" height="25"/>
    <rect x="500" y="75.37" width="50" height="25"/>
    <rect x="550" y="0.37" width="50" height="25"/>
    <rect x="550" y="50.37" width="50" height="25"/>
  </g>
  <g>
    <rect x="200.18" y="300.18" width="100" height="100" style="fill: none"/>
    <rect x="200.18" y="325.18" width="50" height="25"/>
    <rect x="200.18" y="375.18" width="50" height="25"/>
    <rect x="250.18" y="300.18" width="50" height="25"/>
    <rect x="250.18" y="350.18" width="50" height="25"/>
  </g>
  <g>
    <rect x="100" y="200" width="100" height="100" style="fill: none"/>
    <circle cx="150" cy="250" r="16.67" style="fill: #ff3e3e"/>
    <path d="M200,200a33.33,33.33,0,0,1-33.33,33.33V200Z"/>
    <path d="M100,266.67A33.33,33.33,0,0,1,133.33,300H100Z"/>
  </g>
  <g>
    <rect x="200" y="200.37" width="100" height="100" style="fill: none"/>
    <path d="M275,250.37a25,25,0,0,1-50,0c0-13.81,11.19-50,25-50S275,236.56,275,250.37Z"/>
    <circle cx="250" cy="258.7" r="12.5" style="fill: #fff"/>
    <path d="M266.67,300.37a16.67,16.67,0,0,0-33.34,0Z"/>
  </g>
  <g>
    <rect x="1200" y="400" width="100" height="100" transform="translate(800 1700) rotate(-90)" style="fill: none"/>
    <path d="M1250,425a25,25,0,0,1,0,50c-13.81,0-50-11.19-50-25S1236.19,425,1250,425Z"/>
    <circle cx="1258.33" cy="450" r="12.5" style="fill: #fff"/>
    <path d="M1300,433.33a16.67,16.67,0,0,0,0,33.34Z"/>
  </g>
  <g>
    <rect x="500" y="100.37" width="100" height="100" style="fill: none"/>
    <path d="M500,100.37v25a75,75,0,0,1,75,75h25v-100Z"/>
    <polygon points="583.33 142.03 583.33 117.03 558.33 117.03 583.33 142.03" style="fill: #fff"/>
    <polygon points="537.5 187.87 537.5 162.87 512.5 162.87 537.5 187.87" style="fill: #fff"/>
  </g>
  <g>
    <rect y="0.37" width="100" height="100" style="fill: none"/>
    <path d="M69,33.7h31V.37H0V33.7H31a14.29,14.29,0,0,1,13.15,8.67h0a20.31,20.31,0,0,1,0,16L35,79.87a20.38,20.38,0,0,0-1.64,8v12.5H66.67V87.87a20.38,20.38,0,0,0-1.64-8L55.81,58.36a20.31,20.31,0,0,1,0-16h0A14.29,14.29,0,0,1,69,33.7Z"/>
    <circle cx="31.25" cy="48.28" r="6.25" style="fill: #fff"/>
    <circle cx="68.75" cy="48.28" r="6.25" style="fill: #fff"/>
  </g>
  <g>
    <rect x="500" y="300" width="100" height="100" transform="translate(900 -200) rotate(90)" style="fill: none"/>
    <path d="M566.67,369v31H600V300H566.67v31A14.29,14.29,0,0,1,558,344.19h0a20.33,20.33,0,0,1-16,0L520.5,335a20.38,20.38,0,0,0-8-1.64H500v33.34h12.5a20.38,20.38,0,0,0,8-1.64l21.5-9.22a20.33,20.33,0,0,1,16,0h0A14.29,14.29,0,0,1,566.67,369Z"/>
    <circle cx="552.08" cy="331.25" r="6.25" style="fill: #fff"/>
    <circle cx="552.08" cy="368.75" r="6.25" style="fill: #fff"/>
  </g>
  <g>
    <rect y="300" width="100" height="100" style="fill: none"/>
    <path d="M33.33,333.33A33.33,33.33,0,0,0,0,300v33.33Z"/>
    <path d="M66.67,333.33A33.34,33.34,0,0,0,33.33,300v33.33Z"/>
    <path d="M100,333.33A33.33,33.33,0,0,0,66.67,300v33.33Z"/>
    <path d="M33.33,366.67A33.34,33.34,0,0,0,0,333.33v33.34Z"/>
    <path d="M66.67,366.67a33.34,33.34,0,0,0-33.34-33.34v33.34Z"/>
    <path d="M100,366.67a33.34,33.34,0,0,0-33.33-33.34v33.34Z"/>
    <path d="M33.33,400A33.33,33.33,0,0,0,0,366.67V400Z"/>
    <path d="M66.67,400a33.34,33.34,0,0,0-33.34-33.33V400Z"/>
    <path d="M100,400a33.33,33.33,0,0,0-33.33-33.33V400Z"/>
  </g>
  <g>
    <rect x="500" y="200" width="100" height="100" style="fill: none"/>
    <path d="M525,225a25,25,0,0,0-25-25v25Z"/>
    <path d="M525,250a25,25,0,0,0-25-25v25Z"/>
    <path d="M525,275a25,25,0,0,0-25-25v25Z"/>
    <path d="M525,300a25,25,0,0,0-25-25v25Z"/>
    <path d="M550,225a25,25,0,0,0-25-25v25Z"/>
    <path d="M550,250a25,25,0,0,0-25-25v25Z"/>
    <path d="M550,275a25,25,0,0,0-25-25v25Z"/>
    <path d="M550,300a25,25,0,0,0-25-25v25Z"/>
    <path d="M575,225a25,25,0,0,0-25-25v25Z"/>
    <path d="M575,250a25,25,0,0,0-25-25v25Z"/>
    <path d="M575,275a25,25,0,0,0-25-25v25Z"/>
    <path d="M575,300a25,25,0,0,0-25-25v25Z"/>
    <path d="M600,225a25,25,0,0,0-25-25v25Z"/>
    <path d="M600,250a25,25,0,0,0-25-25v25Z"/>
    <path d="M600,275a25,25,0,0,0-25-25v25Z"/>
    <path d="M600,300a25,25,0,0,0-25-25v25Z"/>
  </g>
  <g>
    <rect x="400" y="200" width="100" height="100" style="fill: none"/>
    <path d="M475,250a25,25,0,0,1,25-25V200c-54.17,0-45.83,33.33-100,33.33v33.34c54.17,0,45.83,33.33,100,33.33V275A25,25,0,0,1,475,250Z"/>
  </g>
  <g>
    <rect x="100" y="300.37" width="100" height="100" style="fill: none"/>
    <g>
      <rect x="102.93" y="309.37" width="14.14" height="2" transform="translate(-187.24 168.69) rotate(-45)"/>
      <rect x="107.93" y="309.37" width="14.14" height="2" transform="translate(-185.78 172.22) rotate(-45)"/>
      <polygon points="115.71 316.07 125.71 306.07 124.29 304.66 114.29 314.66 104.29 324.66 105.71 326.07 115.71 316.07"/>
      <polygon points="109.29 324.66 110.71 326.07 120.71 316.07 130.71 306.07 129.29 304.66 119.29 314.66 109.29 324.66"/>
      <polygon points="119.29 324.66 109.29 334.66 110.71 336.07 120.71 326.07 130.71 316.07 140.71 306.07 139.29 304.66 129.29 314.66 119.29 324.66"/>
      <polygon points="129.29 324.66 119.29 334.66 109.29 344.66 110.71 346.07 120.71 336.07 130.71 326.07 140.71 316.07 150.71 306.07 149.29 304.66 139.29 314.66 129.29 324.66"/>
      <polygon points="139.29 324.66 129.29 334.66 119.29 344.66 109.29 354.66 110.71 356.07 120.71 346.07 130.71 336.07 140.71 326.07 150.71 316.07 160.71 306.07 159.29 304.66 149.29 314.66 139.29 324.66"/>
      <polygon points="149.29 324.66 139.29 334.66 129.29 344.66 119.29 354.66 109.29 364.66 110.71 366.07 120.71 356.07 130.71 346.07 140.71 336.07 150.71 326.07 160.71 316.07 170.71 306.07 169.29 304.66 159.29 314.66 149.29 324.66"/>
      <polygon points="159.29 324.66 149.29 334.66 139.29 344.66 129.29 354.66 119.29 364.66 109.29 374.66 110.71 376.07 120.71 366.07 130.71 356.07 140.71 346.07 150.71 336.07 160.71 326.07 170.71 316.07 180.71 306.07 179.29 304.66 169.29 314.66 159.29 324.66"/>
      <polygon points="169.29 324.66 159.29 334.66 149.29 344.66 139.29 354.66 129.29 364.66 119.29 374.66 109.29 384.66 110.71 386.07 120.71 376.07 130.71 366.07 140.71 356.07 150.71 346.07 160.71 336.07 170.71 326.07 180.71 316.07 190.71 306.07 189.29 304.66 179.29 314.66 169.29 324.66"/>
      <polygon points="184.29 324.66 174.29 334.66 164.29 344.66 154.29 354.66 144.29 364.66 134.29 374.66 124.29 384.66 114.29 394.66 115.71 396.07 125.71 386.07 135.71 376.07 145.71 366.07 155.71 356.07 165.71 346.07 175.71 336.07 185.71 326.07 195.71 316.07 194.29 314.66 184.29 324.66"/>
      <polygon points="115.71 326.07 125.71 316.07 135.71 306.07 134.29 304.66 124.29 314.66 114.29 324.66 104.29 334.66 105.71 336.07 115.71 326.07"/>
      <polygon points="184.29 334.66 174.29 344.66 164.29 354.66 154.29 364.66 144.29 374.66 134.29 384.66 124.29 394.66 125.71 396.07 135.71 386.07 145.71 376.07 155.71 366.07 165.71 356.07 175.71 346.07 185.71 336.07 195.71 326.07 194.29 324.66 184.29 334.66"/>
      <polygon points="115.71 336.07 125.71 326.07 135.71 316.07 145.71 306.07 144.29 304.66 134.29 314.66 124.29 324.66 114.29 334.66 104.29 344.66 105.71 346.07 115.71 336.07"/>
      <polygon points="184.29 344.66 174.29 354.66 164.29 364.66 154.29 374.66 144.29 384.66 134.29 394.66 135.71 396.07 145.71 386.07 155.71 376.07 165.71 366.07 175.71 356.07 185.71 346.07 195.71 336.07 194.29 334.66 184.29 344.66"/>
      <polygon points="115.71 346.07 125.71 336.07 135.71 326.07 145.71 316.07 155.71 306.07 154.29 304.66 144.29 314.66 134.29 324.66 124.29 334.66 114.29 344.66 104.29 354.66 105.71 356.07 115.71 346.07"/>
      <polygon points="184.29 354.66 174.29 364.66 164.29 374.66 154.29 384.66 144.29 394.66 145.71 396.07 155.71 386.07 165.71 376.07 175.71 366.07 185.71 356.07 195.71 346.07 194.29 344.66 184.29 354.66"/>
      <polygon points="115.71 356.07 125.71 346.07 135.71 336.07 145.71 326.07 155.71 316.07 165.71 306.07 164.29 304.66 154.29 314.66 144.29 324.66 134.29 334.66 124.29 344.66 114.29 354.66 104.29 364.66 105.71 366.07 115.71 356.07"/>
      <polygon points="184.29 364.66 174.29 374.66 164.29 384.66 154.29 394.66 155.71 396.07 165.71 386.07 175.71 376.07 185.71 366.07 195.71 356.07 194.29 354.66 184.29 364.66"/>
      <polygon points="115.71 366.07 125.71 356.07 135.71 346.07 145.71 336.07 155.71 326.07 165.71 316.07 175.71 306.07 174.29 304.66 164.29 314.66 154.29 324.66 144.29 334.66 134.29 344.66 124.29 354.66 114.29 364.66 104.29 374.66 105.71 376.07 115.71 366.07"/>
      <polygon points="184.29 374.66 174.29 384.66 164.29 394.66 165.71 396.07 175.71 386.07 185.71 376.07 195.71 366.07 194.29 364.66 184.29 374.66"/>
      <polygon points="115.71 376.07 125.71 366.07 135.71 356.07 145.71 346.07 155.71 336.07 165.71 326.07 175.71 316.07 185.71 306.07 184.29 304.66 174.29 314.66 164.29 324.66 154.29 334.66 144.29 344.66 134.29 354.66 124.29 364.66 114.29 374.66 104.29 384.66 105.71 386.07 115.71 376.07"/>
      <polygon points="125.71 376.07 135.71 366.07 145.71 356.07 155.71 346.07 165.71 336.07 175.71 326.07 185.71 316.07 195.71 306.07 194.29 304.66 184.29 314.66 174.29 324.66 164.29 334.66 154.29 344.66 144.29 354.66 134.29 364.66 124.29 374.66 114.29 384.66 104.29 394.66 105.71 396.07 115.71 386.07 125.71 376.07"/>
      <polygon points="130.71 376.07 140.71 366.07 150.71 356.07 160.71 346.07 170.71 336.07 180.71 326.07 190.71 316.07 189.29 314.66 179.29 324.66 169.29 334.66 159.29 344.66 149.29 354.66 139.29 364.66 129.29 374.66 119.29 384.66 109.29 394.66 110.71 396.07 120.71 386.07 130.71 376.07"/>
      <polygon points="140.71 376.07 150.71 366.07 160.71 356.07 170.71 346.07 180.71 336.07 190.71 326.07 189.29 324.66 179.29 334.66 169.29 344.66 159.29 354.66 149.29 364.66 139.29 374.66 129.29 384.66 119.29 394.66 120.71 396.07 130.71 386.07 140.71 376.07"/>
      <polygon points="150.71 376.07 160.71 366.07 170.71 356.07 180.71 346.07 190.71 336.07 189.29 334.66 179.29 344.66 169.29 354.66 159.29 364.66 149.29 374.66 139.29 384.66 129.29 394.66 130.71 396.07 140.71 386.07 150.71 376.07"/>
      <polygon points="160.71 376.07 170.71 366.07 180.71 356.07 190.71 346.07 189.29 344.66 179.29 354.66 169.29 364.66 159.29 374.66 149.29 384.66 139.29 394.66 140.71 396.07 150.71 386.07 160.71 376.07"/>
      <polygon points="170.71 376.07 180.71 366.07 190.71 356.07 189.29 354.66 179.29 364.66 169.29 374.66 159.29 384.66 149.29 394.66 150.71 396.07 160.71 386.07 170.71 376.07"/>
      <polygon points="180.71 376.07 190.71 366.07 189.29 364.66 179.29 374.66 169.29 384.66 159.29 394.66 160.71 396.07 170.71 386.07 180.71 376.07"/>
      <polygon points="190.71 376.07 189.29 374.66 179.29 384.66 169.29 394.66 170.71 396.07 180.71 386.07 190.71 376.07"/>
      <polygon points="184.29 384.66 174.29 394.66 175.71 396.07 185.71 386.07 195.71 376.07 194.29 374.66 184.29 384.66"/>
      <rect x="177.93" y="389.37" width="14.14" height="2" transform="translate(-221.85 245.15) rotate(-45)"/>
      <rect x="182.93" y="389.37" width="14.14" height="2" transform="translate(-220.38 248.69) rotate(-45)"/>
    </g>
  </g>
  <g>
    <rect x="1150" y="50" width="200" height="100" transform="translate(1350 -1150) rotate(90)" style="fill: none"/>
    <g>
      <polygon points="1250 88.18 1296.59 41.59 1293.41 38.41 1250 81.82 1206.59 38.41 1203.41 41.59 1250 88.18"/>
      <polygon points="1250 133.18 1296.59 86.59 1293.41 83.41 1250 126.82 1206.59 83.41 1203.41 86.59 1250 133.18"/>
      <polygon points="1293.41 23.41 1250 66.82 1206.59 23.41 1203.41 26.59 1250 73.18 1296.59 26.59 1293.41 23.41"/>
      <polygon points="1250 118.18 1296.59 71.59 1293.41 68.41 1250 111.82 1206.59 68.41 1203.41 71.59 1250 118.18"/>
      <polygon points="1250 103.18 1296.59 56.59 1293.41 53.41 1250 96.82 1206.59 53.41 1203.41 56.59 1250 103.18"/>
      <polygon points="1250 28.18 1278.18 0 1271.82 0 1250 21.82 1228.18 0 1221.82 0 1250 28.18"/>
      <polygon points="1236.82 0 1250 13.18 1263.18 0 1256.82 0 1250 6.82 1243.18 0 1236.82 0"/>
      <polygon points="1250 43.18 1293.18 0 1286.82 0 1250 36.82 1213.18 0 1206.82 0 1250 43.18"/>
      <polygon points="1250 58.18 1296.59 11.59 1293.41 8.41 1250 51.82 1206.59 8.41 1203.41 11.59 1250 58.18"/>
      <polygon points="1250 178.18 1296.59 131.59 1293.41 128.41 1250 171.82 1206.59 128.41 1203.41 131.59 1250 178.18"/>
      <polygon points="1226.82 200 1233.18 200 1206.59 173.41 1203.41 176.59 1226.82 200"/>
      <polygon points="1241.82 200 1248.18 200 1206.59 158.41 1203.41 161.59 1241.82 200"/>
      <polygon points="1293.41 188.41 1281.82 200 1288.18 200 1296.59 191.59 1293.41 188.41"/>
      <polygon points="1250 148.18 1296.59 101.59 1293.41 98.41 1250 141.82 1206.59 98.41 1203.41 101.59 1250 148.18"/>
      <polygon points="1218.18 200 1206.59 188.41 1203.41 191.59 1211.82 200 1218.18 200"/>
      <polygon points="1250 193.18 1296.59 146.59 1293.41 143.41 1250 186.82 1206.59 143.41 1203.41 146.59 1250 193.18"/>
      <polygon points="1250 163.18 1296.59 116.59 1293.41 113.41 1250 156.82 1206.59 113.41 1203.41 116.59 1250 163.18"/>
      <polygon points="1293.41 158.41 1251.82 200 1258.18 200 1296.59 161.59 1293.41 158.41"/>
      <polygon points="1293.41 173.41 1266.82 200 1273.18 200 1296.59 176.59 1293.41 173.41"/>
    </g>
  </g>
  <g>
    <rect x="2250" y="150" width="200" height="100" transform="translate(2150 2550) rotate(-90)" style="fill: none"/>
    <g>
      <polygon points="2350 211.82 2303.41 258.41 2306.59 261.59 2350 218.18 2393.41 261.59 2396.59 258.41 2350 211.82"/>
      <polygon points="2350 166.82 2303.41 213.41 2306.59 216.59 2350 173.18 2393.41 216.59 2396.59 213.41 2350 166.82"/>
      <polygon points="2306.59 276.59 2350 233.18 2393.41 276.59 2396.59 273.41 2350 226.82 2303.41 273.41 2306.59 276.59"/>
      <polygon points="2350 181.82 2303.41 228.41 2306.59 231.59 2350 188.18 2393.41 231.59 2396.59 228.41 2350 181.82"/>
      <polygon points="2350 196.82 2303.41 243.41 2306.59 246.59 2350 203.18 2393.41 246.59 2396.59 243.41 2350 196.82"/>
      <polygon points="2350 271.82 2321.82 300 2328.18 300 2350 278.18 2371.82 300 2378.18 300 2350 271.82"/>
      <polygon points="2363.18 300 2350 286.82 2336.82 300 2343.18 300 2350 293.18 2356.82 300 2363.18 300"/>
      <polygon points="2350 256.82 2306.82 300 2313.18 300 2350 263.18 2386.82 300 2393.18 300 2350 256.82"/>
      <polygon points="2350 241.82 2303.41 288.41 2306.59 291.59 2350 248.18 2393.41 291.59 2396.59 288.41 2350 241.82"/>
      <polygon points="2350 121.82 2303.41 168.41 2306.59 171.59 2350 128.18 2393.41 171.59 2396.59 168.41 2350 121.82"/>
      <polygon points="2373.18 100 2366.82 100 2393.41 126.59 2396.59 123.41 2373.18 100"/>
      <polygon points="2358.18 100 2351.82 100 2393.41 141.59 2396.59 138.41 2358.18 100"/>
      <polygon points="2306.59 111.59 2318.18 100 2311.82 100 2303.41 108.41 2306.59 111.59"/>
      <polygon points="2350 151.82 2303.41 198.41 2306.59 201.59 2350 158.18 2393.41 201.59 2396.59 198.41 2350 151.82"/>
      <polygon points="2381.82 100 2393.41 111.59 2396.59 108.41 2388.18 100 2381.82 100"/>
      <polygon points="2350 106.82 2303.41 153.41 2306.59 156.59 2350 113.18 2393.41 156.59 2396.59 153.41 2350 106.82"/>
      <polygon points="2350 136.82 2303.41 183.41 2306.59 186.59 2350 143.18 2393.41 186.59 2396.59 183.41 2350 136.82"/>
      <polygon points="2306.59 141.59 2348.18 100 2341.82 100 2303.41 138.41 2306.59 141.59"/>
      <polygon points="2306.59 126.59 2333.18 100 2326.82 100 2303.41 123.41 2306.59 126.59"/>
    </g>
  </g>
  <g>
    <rect x="200" y="400" width="100" height="100" transform="translate(700 200) rotate(90)" style="fill: none"/>
    <path d="M200,500H300V400H266.67C266.67,445,200,465,200,500Z"/>
  </g>
  <g>
    <rect x="1900" y="100" width="100" height="100" transform="translate(3900 300) rotate(180)" style="fill: none"/>
    <path d="M1900,100V200h100V166.67C1955,166.67,1935,100,1900,100Z"/>
  </g>
  <g>
    <rect x="1800" y="100" width="100" height="100" style="fill: none"/>
    <path d="M1900,100V200H1800V166.67C1845,166.67,1865,100,1900,100Z"/>
  </g>
  <g>
    <rect x="600" y="200" width="100" height="100" style="fill: none"/>
    <path d="M666.67,217.49V200H633.33v17.49a24.79,24.79,0,0,0,4.17,13.76h0A24.79,24.79,0,0,1,641.67,245v10a24.79,24.79,0,0,1-4.17,13.76h0a24.79,24.79,0,0,0-4.17,13.76V300h33.34V282.51a24.79,24.79,0,0,0-4.17-13.76h0A24.79,24.79,0,0,1,658.33,255V245a24.79,24.79,0,0,1,4.17-13.76h0A24.79,24.79,0,0,0,666.67,217.49Z"/>
    <path d="M600,225a12.5,12.5,0,0,0,0-25Z"/>
    <path d="M600,250a12.5,12.5,0,0,0,0-25Z"/>
    <path d="M600,275a12.5,12.5,0,0,0,0-25Z"/>
    <path d="M600,300a12.5,12.5,0,0,0,0-25Z"/>
    <path d="M700,275a12.5,12.5,0,0,0,0,25Z"/>
    <path d="M700,250a12.5,12.5,0,0,0,0,25Z"/>
    <path d="M700,225a12.5,12.5,0,0,0,0,25Z"/>
    <path d="M700,200a12.5,12.5,0,0,0,0,25Z"/>
  </g>
  <g>
    <rect x="800" y="100" width="100" height="100" style="fill: none"/>
    <path d="M800,150a12.5,12.5,0,0,0,0-25Z"/>
    <path d="M800,200a12.5,12.5,0,0,0,0-25Z"/>
    <path d="M900,150c-24,0-39.19-7-52.63-13.2C834.19,130.73,821.74,125,800,125V100c27.22,0,43.48,7.49,57.83,14.09C870.54,120,881.52,125,900,125Z"/>
    <path d="M900,200c-24,0-39.19-7-52.63-13.2C834.19,180.73,821.74,175,800,175V150c27.22,0,43.48,7.49,57.83,14.09C870.54,170,881.52,175,900,175Z"/>
  </g>
  <g>
    <rect x="1000" y="100" width="100" height="100" style="fill: none"/>
    <path d="M1066.67,100a16.67,16.67,0,0,1-33.34,0Z"/>
    <rect x="1000" y="154.17" width="25" height="45.83"/>
    <rect x="1025" y="137.5" width="25" height="62.5"/>
    <rect x="1050" y="175" width="25" height="25"/>
    <rect x="1075" y="120.83" width="25" height="79.17"/>
  </g>
  <g>
    <rect x="1300" y="300" width="100" height="100" style="fill: none"/>
    <path d="M1366.67,300a16.67,16.67,0,0,1-33.34,0Z"/>
    <rect x="1300" y="354.17" width="25" height="45.83"/>
    <rect x="1325" y="337.5" width="25" height="62.5"/>
    <rect x="1350" y="375" width="25" height="25"/>
    <rect x="1375" y="320.83" width="25" height="79.17"/>
  </g>
  <g>
    <rect x="2300" width="100" height="100" style="fill: none"/>
    <path d="M2366.67,0A16.68,16.68,0,0,1,2350,16.67,16.68,16.68,0,0,1,2333.33,0Z"/>
    <rect x="2300" y="54.17" width="25" height="45.83"/>
    <rect x="2325" y="37.5" width="25" height="62.5"/>
    <rect x="2350" y="75" width="25" height="25"/>
    <rect x="2375" y="20.83" width="25" height="79.17"/>
  </g>
  <g>
    <rect x="1900" y="200" width="100" height="100" transform="translate(1700 2200) rotate(-90)" style="fill: none"/>
    <path d="M1900,233.33a16.67,16.67,0,1,1,0,33.34Z"/>
    <rect x="1964.58" y="264.58" width="25" height="45.83" transform="translate(1689.58 2264.58) rotate(-90)"/>
    <rect x="1956.25" y="231.25" width="25" height="62.5" transform="translate(1706.25 2231.25) rotate(-90)"/>
    <rect x="1975" y="225" width="25" height="25" transform="translate(1750 2225) rotate(-90)"/>
    <rect x="1947.92" y="172.92" width="25" height="79.17" transform="translate(1747.92 2172.92) rotate(-90)"/>
  </g>
  <g>
    <rect x="1000" width="100" height="100" style="fill: none"/>
    <polygon points="1033.33 0 1000 0 1000 33.33 1033.33 0"/>
    <polygon points="1066.67 33.33 1066.67 0 1033.33 0 1066.67 33.33"/>
    <polygon points="1100 33.33 1100 0 1066.67 0 1100 33.33"/>
    <polygon points="1033.33 33.33 1000 33.33 1000 66.67 1033.33 33.33"/>
    <polygon points="1000 66.67 1000 100 1033.33 100 1000 66.67"/>
    <polygon points="1033.33 66.67 1033.33 100 1066.67 100 1033.33 66.67"/>
    <polygon points="1033.33 66.67 1066.67 66.67 1066.67 33.33 1033.33 66.67"/>
    <polygon points="1100 66.67 1100 33.33 1066.67 33.33 1100 66.67"/>
    <polygon points="1100 100 1100 66.67 1066.67 66.67 1100 100"/>
  </g>
  <g>
    <rect x="1200" y="200" width="100" height="100" style="fill: none"/>
    <polygon points="1225 200 1200 200 1200 225 1225 200"/>
    <polygon points="1250 225 1250 200 1225 200 1250 225"/>
    <polygon points="1275 200 1250 200 1250 225 1275 200"/>
    <polygon points="1275 225 1300 225 1300 200 1275 225"/>
    <polygon points="1200 225 1200 250 1225 250 1200 225"/>
    <polygon points="1250 250 1250 225 1225 225 1250 250"/>
    <polygon points="1300 225 1275 225 1275 250 1300 225"/>
    <polygon points="1250 250 1275 250 1275 225 1250 250"/>
    <polygon points="1275 300 1300 300 1300 275 1275 300"/>
    <polygon points="1250 300 1275 300 1275 275 1250 300"/>
    <polygon points="1225 300 1250 300 1250 275 1225 300"/>
    <polygon points="1225 275 1200 275 1200 300 1225 275"/>
    <polygon points="1275 275 1275 250 1250 250 1275 275"/>
    <polygon points="1275 250 1275 275 1300 275 1275 250"/>
    <polygon points="1225 275 1250 275 1250 250 1225 275"/>
    <polygon points="1250 250 1225 250 1225 275 1250 250"/>
  </g>
  <g>
    <rect x="600" y="100" width="100" height="100" transform="translate(500 800) rotate(-90)" style="fill: none"/>
    <polygon points="600 133.33 600 166.67 700 150 600 133.33"/>
    <polygon points="600 166.67 600 200 700 183.33 600 166.67"/>
    <polygon points="600 100 600 133.33 700 116.67 600 100"/>
  </g>
  <g>
    <rect y="400" width="100" height="100" transform="translate(500 400) rotate(90)" style="fill: none"/>
    <path d="M33.33,500C33.33,447.83,0,456.52,0,400H100c0,56.52-33.33,47.83-33.33,100Z"/>
    <circle cx="50" cy="450" r="16.67" style="fill: #fff"/>
  </g>
  <g>
    <rect x="300" y="300" width="100" height="100" style="fill: none"/>
    <rect x="300" y="325" width="100" height="25"/>
    <rect x="300" y="375" width="100" height="25"/>
  </g>
  <g>
    <rect x="1000" y="300" width="100" height="100" transform="translate(700 1400) rotate(-90)" style="fill: none"/>
    <path d="M1025,300c0,41.67,41.67,50,41.67,100h-33.34c0-54.17-33.33-45.83-33.33-100Z"/>
  </g>
  <g>
    <rect x="2100" y="100" width="100" height="100" transform="translate(2000 2300) rotate(-90)" style="fill: none"/>
    <path d="M2125,100c0,41.67,41.67,50,41.67,100h-33.34c0-54.17-33.33-45.83-33.33-100Z"/>
  </g>
  <g>
    <rect x="1400" y="400" width="100" height="100" style="fill: none"/>
    <path d="M1500,425c-41.67,0-50,41.67-100,41.67V433.33c54.17,0,45.83-33.33,100-33.33Z"/>
  </g>
  <g>
    <rect x="400" y="300" width="100" height="100" transform="translate(900 700) rotate(180)" style="fill: none"/>
    <path d="M400,375c41.67,0,50-41.67,100-41.67v33.34c-54.17,0-45.83,33.33-100,33.33Z"/>
  </g>
  <g>
    <rect x="1400" y="200" width="100" height="100" transform="translate(1200 1700) rotate(-90)" style="fill: none"/>
    <path d="M1450,300a12.5,12.5,0,0,0-25,0Z"/>
    <path d="M1500,300a12.5,12.5,0,0,0-25,0Z"/>
    <path d="M1450,200c0,24-7,39.19-13.2,52.63-6.07,13.18-11.8,25.63-11.8,47.37h-25c0-27.22,7.49-43.48,14.09-57.83C1420,229.46,1425,218.48,1425,200Z"/>
    <path d="M1500,200c0,24-7,39.19-13.2,52.63-6.07,13.18-11.8,25.63-11.8,47.37h-25c0-27.22,7.49-43.48,14.09-57.83C1470,229.46,1475,218.48,1475,200Z"/>
  </g>
  <g>
    <rect x="1600" y="200" width="100" height="100" style="fill: none"/>
    <path d="M1666.67,200a16.67,16.67,0,0,1-33.34,0Z"/>
    <rect x="1600" y="254.17" width="25" height="45.83"/>
    <rect x="1625" y="237.5" width="25" height="62.5"/>
    <rect x="1650" y="275" width="25" height="25"/>
    <rect x="1675" y="220.83" width="25" height="79.17"/>
  </g>
  <g>
    <rect x="1800" y="200" width="100" height="100" style="fill: none"/>
    <path d="M1900,266.67c-52.17,0-43.48,33.33-100,33.33V200c56.52,0,47.83,33.33,100,33.33Z"/>
    <circle cx="1850" cy="250" r="16.67" style="fill: #fff"/>
  </g>
  <g>
    <rect x="2000" y="400" width="100" height="100" transform="translate(2500 -1600) rotate(90)" style="fill: none"/>
    <path d="M2033.33,500c0-52.17-33.33-43.48-33.33-100h100c0,56.52-33.33,47.83-33.33,100Z"/>
    <circle cx="2050" cy="450" r="16.67" style="fill: #fff"/>
  </g>
  <g>
    <rect x="1400" width="100" height="100" transform="translate(1400 1500) rotate(-90)" style="fill: none"/>
    <rect x="1387.5" y="37.5" width="100" height="25" transform="translate(1387.5 1487.5) rotate(-90)"/>
    <rect x="1437.5" y="37.5" width="100" height="25" transform="translate(1437.5 1537.5) rotate(-90)"/>
  </g>
  <g>
    <rect x="1500" width="100" height="100" transform="translate(1500 1600) rotate(-90)" style="fill: none"/>
    <rect x="1487.5" y="37.5" width="100" height="25" transform="translate(1487.5 1587.5) rotate(-90)"/>
    <rect x="1537.5" y="37.5" width="100" height="25" transform="translate(1537.5 1637.5) rotate(-90)"/>
  </g>
  <g>
    <rect x="1500" y="100" width="100" height="100" transform="translate(1400 1700) rotate(-90)" style="fill: none"/>
    <path d="M1575,100c0,41.67-41.67,50-41.67,100h33.34c0-54.17,33.33-45.83,33.33-100Z"/>
  </g>
  <g>
    <rect x="1400" y="100" width="100" height="100" transform="translate(1300 1600) rotate(-90)" style="fill: none"/>
    <rect x="1412.5" y="162.5" width="50" height="25" transform="translate(1262.5 1612.5) rotate(-90)"/>
    <rect x="1462.5" y="162.5" width="50" height="25" transform="translate(1312.5 1662.5) rotate(-90)"/>
    <rect x="1387.5" y="112.5" width="50" height="25" transform="translate(1287.5 1537.5) rotate(-90)"/>
    <rect x="1437.5" y="112.5" width="50" height="25" transform="translate(1337.5 1587.5) rotate(-90)"/>
  </g>
  <g>
    <rect x="100" y="400" width="100" height="100" style="fill: none"/>
    <path d="M100,400v25a75,75,0,0,1,75,75h25V400Z"/>
    <polygon points="183.33 441.67 183.33 416.67 158.33 416.67 183.33 441.67" style="fill: #fff"/>
    <polygon points="137.5 487.5 137.5 462.5 112.5 462.5 137.5 487.5" style="fill: #fff"/>
  </g>
  <g>
    <rect x="1699.63" width="100" height="100" style="fill: none"/>
    <path d="M1768.59,33.33h31V0h-100V33.33h31A14.32,14.32,0,0,1,1743.83,42h0a20.33,20.33,0,0,1,0,16l-9.22,21.5a20.38,20.38,0,0,0-1.64,8V100h33.33V87.5a20.38,20.38,0,0,0-1.64-8L1755.44,58a20.33,20.33,0,0,1,0-16h0A14.32,14.32,0,0,1,1768.59,33.33Z"/>
    <circle cx="1730.88" cy="47.92" r="6.25" style="fill: #fff"/>
    <circle cx="1768.38" cy="47.92" r="6.25" style="fill: #fff"/>
  </g>
  <g>
    <rect x="1100" y="400" width="100" height="100" transform="translate(1600 -700) rotate(90)" style="fill: none"/>
    <path d="M1166.67,469v31H1200V400h-33.33v31a14.29,14.29,0,0,1-8.67,13.15h0a20.33,20.33,0,0,1-16,0L1120.5,435a20.38,20.38,0,0,0-8-1.64H1100v33.34h12.5a20.38,20.38,0,0,0,8-1.64l21.5-9.22a20.33,20.33,0,0,1,16,0h0A14.29,14.29,0,0,1,1166.67,469Z"/>
    <circle cx="1152.08" cy="431.25" r="6.25" style="fill: #fff"/>
    <circle cx="1152.08" cy="468.75" r="6.25" style="fill: #fff"/>
  </g>
  <g>
    <rect x="1600" width="100" height="100" transform="translate(1600 1700) rotate(-90)" style="fill: none"/>
    <path d="M1625,75a25,25,0,0,0-25,25h25Z"/>
    <path d="M1650,75a25,25,0,0,0-25,25h25Z"/>
    <path d="M1675,75a25,25,0,0,0-25,25h25Z"/>
    <path d="M1700,75a25,25,0,0,0-25,25h25Z"/>
    <path d="M1625,50a25,25,0,0,0-25,25h25Z"/>
    <path d="M1650,50a25,25,0,0,0-25,25h25Z"/>
    <path d="M1675,50a25,25,0,0,0-25,25h25Z"/>
    <path d="M1700,50a25,25,0,0,0-25,25h25Z"/>
    <path d="M1625,25a25,25,0,0,0-25,25h25Z"/>
    <path d="M1650,25a25,25,0,0,0-25,25h25Z"/>
    <path d="M1675,25a25,25,0,0,0-25,25h25Z"/>
    <path d="M1700,25a25,25,0,0,0-25,25h25Z"/>
    <path d="M1625,0a25,25,0,0,0-25,25h25Z"/>
    <path d="M1650,0a25,25,0,0,0-25,25h25Z"/>
    <path d="M1675,0a25,25,0,0,0-25,25h25Z"/>
    <path d="M1700,0a25,25,0,0,0-25,25h25Z"/>
  </g>
  <g>
    <rect x="1600" y="100" width="100" height="100" transform="translate(1500 1800) rotate(-90)" style="fill: none"/>
    <path d="M1650,125a25,25,0,0,1-25-25h-25c0,54.17,33.33,45.83,33.33,100h33.34c0-54.17,33.33-45.83,33.33-100h-25A25,25,0,0,1,1650,125Z"/>
  </g>
  <g>
    <rect x="1700" y="200" width="100" height="100" transform="translate(1500 2000) rotate(-90)" style="fill: none"/>
    <rect x="1687.5" y="237.5" width="100" height="25" transform="translate(1487.5 1987.5) rotate(-90)"/>
    <rect x="1737.5" y="237.5" width="100" height="25" transform="translate(1537.5 2037.5) rotate(-90)"/>
  </g>
  <g>
    <rect x="1700" y="100" width="100" height="100" transform="translate(1900 -1600) rotate(90)" style="fill: none"/>
    <path d="M1775,200c0-41.67-41.67-50-41.67-100h33.34c0,54.17,33.33,45.83,33.33,100Z"/>
  </g>
  <g>
    <rect x="1300" y="200" width="100" height="100" transform="translate(1100 1600) rotate(-90)" style="fill: none"/>
    <path d="M1366.67,200c0,52.17,33.33,43.48,33.33,100H1300c0-56.52,33.33-47.83,33.33-100Z"/>
    <circle cx="1350" cy="250" r="16.67" style="fill: #fff"/>
  </g>
  <g>
    <rect x="700" y="100" width="100" height="100" style="fill: none"/>
    <rect x="700" y="125" width="50" height="25"/>
    <rect x="700" y="175" width="50" height="25"/>
    <rect x="750" y="100" width="50" height="25"/>
    <rect x="750" y="150" width="50" height="25"/>
  </g>
  <g>
    <rect x="1000" y="200" width="100" height="100" style="fill: none"/>
    <circle cx="1050" cy="250" r="16.67"/>
    <path d="M1100,200a33.33,33.33,0,0,1-33.33,33.33V200Z"/>
    <path d="M1000,266.67A33.33,33.33,0,0,1,1033.33,300H1000Z"/>
  </g>
  <g>
    <rect x="2000" y="100" width="100" height="100" style="fill: none"/>
    <circle cx="2050" cy="150" r="16.67"/>
    <path d="M2100,100a33.33,33.33,0,0,1-33.33,33.33V100Z"/>
    <path d="M2000,166.67A33.33,33.33,0,0,1,2033.33,200H2000Z"/>
  </g>
  <g>
    <rect x="1300" y="100" width="100" height="100" style="fill: none"/>
    <path d="M1375,150a25,25,0,0,1-50,0c0-13.81,11.19-50,25-50S1375,136.19,1375,150Z"/>
    <circle cx="1350" cy="158.33" r="12.5" style="fill: #fff"/>
    <path d="M1366.67,200a16.67,16.67,0,0,0-33.34,0Z"/>
  </g>
  <g>
    <rect x="2300" y="400" width="100" height="100" transform="translate(4700 900) rotate(180)" style="fill: none"/>
    <path d="M2325,450a25,25,0,0,1,50,0c0,13.81-11.19,50-25,50S2325,463.81,2325,450Z"/>
    <circle cx="2350" cy="441.67" r="12.5" style="fill: #fff"/>
    <path d="M2333.33,400a16.67,16.67,0,0,0,33.34,0Z"/>
  </g>
  <g>
    <rect x="900" y="100" width="100" height="100" transform="translate(800 1100) rotate(-90)" style="fill: none"/>
    <path d="M900,200h25a75,75,0,0,1,75-75V100H900Z"/>
    <polygon points="941.67 116.67 916.67 116.67 916.67 141.67 941.67 116.67" style="fill: #fff"/>
    <polygon points="987.5 162.5 962.5 162.5 962.5 187.5 987.5 162.5" style="fill: #ff3e3e"/>
  </g>
  <g>
    <rect x="1700" y="400" width="100" height="100" transform="translate(1300 2200) rotate(-90)" style="fill: none"/>
    <path d="M1700,500h25a75,75,0,0,1,75-75V400H1700Z"/>
    <polygon points="1741.67 416.67 1716.67 416.67 1716.67 441.67 1741.67 416.67" style="fill: #fff"/>
    <polygon points="1787.5 462.5 1762.5 462.5 1762.5 487.5 1787.5 462.5" style="fill: #fff"/>
  </g>
  <g>
    <rect x="800" y="200" width="100" height="100" transform="translate(1100 -600) rotate(90)" style="fill: none"/>
    <path d="M866.67,269v31H900V200H866.67v31A14.29,14.29,0,0,1,858,244.19h0a20.33,20.33,0,0,1-16,0L820.5,235a20.38,20.38,0,0,0-8-1.64H800v33.34h12.5a20.38,20.38,0,0,0,8-1.64l21.5-9.22a20.33,20.33,0,0,1,16,0h0A14.29,14.29,0,0,1,866.67,269Z"/>
    <circle cx="852.08" cy="231.25" r="6.25" style="fill: #fff"/>
    <circle cx="852.08" cy="268.75" r="6.25" style="fill: #fff"/>
  </g>
  <g>
    <rect x="900" y="200" width="100" height="100" transform="translate(700 1200) rotate(-90)" style="fill: none"/>
    <path d="M933.33,266.67A33.33,33.33,0,0,0,900,300h33.33Z"/>
    <path d="M933.33,233.33A33.34,33.34,0,0,0,900,266.67h33.33Z"/>
    <path d="M933.33,200A33.33,33.33,0,0,0,900,233.33h33.33Z"/>
    <path d="M966.67,266.67A33.34,33.34,0,0,0,933.33,300h33.34Z"/>
    <path d="M966.67,233.33a33.34,33.34,0,0,0-33.34,33.34h33.34Z"/>
    <path d="M966.67,200a33.34,33.34,0,0,0-33.34,33.33h33.34Z"/>
    <path d="M1000,266.67A33.33,33.33,0,0,0,966.67,300H1000Z"/>
    <path d="M1000,233.33a33.34,33.34,0,0,0-33.33,33.34H1000Z"/>
    <path d="M1000,200a33.33,33.33,0,0,0-33.33,33.33H1000Z"/>
  </g>
  <g>
    <rect x="1900" y="400" width="100" height="100" transform="translate(1500 2400) rotate(-90)" style="fill: none"/>
    <path d="M1966.67,466.67A33.33,33.33,0,0,1,2000,500h-33.33Z"/>
    <path d="M1966.67,433.33A33.34,33.34,0,0,1,2000,466.67h-33.33Z"/>
    <path d="M1966.67,400A33.33,33.33,0,0,1,2000,433.33h-33.33Z"/>
    <path d="M1933.33,466.67A33.34,33.34,0,0,1,1966.67,500h-33.34Z"/>
    <path d="M1933.33,433.33a33.34,33.34,0,0,1,33.34,33.34h-33.34Z"/>
    <path d="M1933.33,400a33.34,33.34,0,0,1,33.34,33.33h-33.34Z"/>
    <path d="M1900,466.67A33.33,33.33,0,0,1,1933.33,500H1900Z"/>
    <path d="M1900,433.33a33.34,33.34,0,0,1,33.33,33.34H1900Z"/>
    <path d="M1900,400a33.33,33.33,0,0,1,33.33,33.33H1900Z"/>
  </g>
  <g>
    <rect x="1300" width="100" height="100" style="fill: none"/>
    <path d="M1325,25a25,25,0,0,0-25-25V25Z"/>
    <path d="M1325,50a25,25,0,0,0-25-25V50Z"/>
    <path d="M1325,75a25,25,0,0,0-25-25V75Z"/>
    <path d="M1325,100a25,25,0,0,0-25-25v25Z"/>
    <path d="M1350,25a25,25,0,0,0-25-25V25Z"/>
    <path d="M1350,50a25,25,0,0,0-25-25V50Z"/>
    <path d="M1350,75a25,25,0,0,0-25-25V75Z"/>
    <path d="M1350,100a25,25,0,0,0-25-25v25Z"/>
    <path d="M1375,25a25,25,0,0,0-25-25V25Z"/>
    <path d="M1375,50a25,25,0,0,0-25-25V50Z"/>
    <path d="M1375,75a25,25,0,0,0-25-25V75Z"/>
    <path d="M1375,100a25,25,0,0,0-25-25v25Z"/>
    <path d="M1400,25a25,25,0,0,0-25-25V25Z"/>
    <path d="M1400,50a25,25,0,0,0-25-25V50Z"/>
    <path d="M1400,75a25,25,0,0,0-25-25V75Z"/>
    <path d="M1400,100a25,25,0,0,0-25-25v25Z"/>
  </g>
  <g>
    <rect x="2200" y="200" width="100" height="100" style="fill: none"/>
    <path d="M2225,225a25,25,0,0,0-25-25v25Z"/>
    <path d="M2225,250a25,25,0,0,0-25-25v25Z"/>
    <path d="M2225,275a25,25,0,0,0-25-25v25Z"/>
    <path d="M2225,300a25,25,0,0,0-25-25v25Z"/>
    <path d="M2250,225a25,25,0,0,0-25-25v25Z"/>
    <path d="M2250,250a25,25,0,0,0-25-25v25Z"/>
    <path d="M2250,275a25,25,0,0,0-25-25v25Z"/>
    <path d="M2250,300a25,25,0,0,0-25-25v25Z"/>
    <path d="M2275,225a25,25,0,0,0-25-25v25Z"/>
    <path d="M2275,250a25,25,0,0,0-25-25v25Z"/>
    <path d="M2275,275a25,25,0,0,0-25-25v25Z"/>
    <path d="M2275,300a25,25,0,0,0-25-25v25Z"/>
    <path d="M2300,225a25,25,0,0,0-25-25v25Z"/>
    <path d="M2300,250a25,25,0,0,0-25-25v25Z"/>
    <path d="M2300,275a25,25,0,0,0-25-25v25Z"/>
    <path d="M2300,300a25,25,0,0,0-25-25v25Z"/>
  </g>
  <g>
    <rect x="1600" y="300" width="200" height="100" transform="translate(3400 700) rotate(-180)" style="fill: none"/>
    <g>
      <polygon points="1711.82 350 1758.41 303.41 1761.59 306.59 1718.18 350 1761.59 393.41 1758.41 396.59 1711.82 350"/>
      <polygon points="1666.82 350 1713.41 303.41 1716.59 306.59 1673.18 350 1716.59 393.41 1713.41 396.59 1666.82 350"/>
      <polygon points="1776.59 306.59 1733.18 350 1776.59 393.41 1773.41 396.59 1726.82 350 1773.41 303.41 1776.59 306.59"/>
      <polygon points="1681.82 350 1728.41 303.41 1731.59 306.59 1688.18 350 1731.59 393.41 1728.41 396.59 1681.82 350"/>
      <polygon points="1696.82 350 1743.41 303.41 1746.59 306.59 1703.18 350 1746.59 393.41 1743.41 396.59 1696.82 350"/>
      <polygon points="1771.82 350 1800 321.82 1800 328.18 1778.18 350 1800 371.82 1800 378.18 1771.82 350"/>
      <polygon points="1800 363.18 1786.82 350 1800 336.82 1800 343.18 1793.18 350 1800 356.82 1800 363.18"/>
      <polygon points="1756.82 350 1800 306.82 1800 313.18 1763.18 350 1800 386.82 1800 393.18 1756.82 350"/>
      <polygon points="1741.82 350 1788.41 303.41 1791.59 306.59 1748.18 350 1791.59 393.41 1788.41 396.59 1741.82 350"/>
      <polygon points="1621.82 350 1668.41 303.41 1671.59 306.59 1628.18 350 1671.59 393.41 1668.41 396.59 1621.82 350"/>
      <polygon points="1600 373.18 1600 366.82 1626.59 393.41 1623.41 396.59 1600 373.18"/>
      <polygon points="1600 358.18 1600 351.82 1641.59 393.41 1638.41 396.59 1600 358.18"/>
      <polygon points="1611.59 306.59 1600 318.18 1600 311.82 1608.41 303.41 1611.59 306.59"/>
      <polygon points="1651.82 350 1698.41 303.41 1701.59 306.59 1658.18 350 1701.59 393.41 1698.41 396.59 1651.82 350"/>
      <polygon points="1600 381.82 1611.59 393.41 1608.41 396.59 1600 388.18 1600 381.82"/>
      <polygon points="1606.82 350 1653.41 303.41 1656.59 306.59 1613.18 350 1656.59 393.41 1653.41 396.59 1606.82 350"/>
      <polygon points="1636.82 350 1683.41 303.41 1686.59 306.59 1643.18 350 1686.59 393.41 1683.41 396.59 1636.82 350"/>
      <polygon points="1641.59 306.59 1600 348.18 1600 341.82 1638.41 303.41 1641.59 306.59"/>
      <polygon points="1626.59 306.59 1600 333.18 1600 326.82 1623.41 303.41 1626.59 306.59"/>
    </g>
  </g>
  <g>
    <rect x="1800" y="400" width="100" height="100" transform="translate(3700 900) rotate(180)" style="fill: none"/>
    <path d="M1800,400V500h100V466.67C1855,466.67,1835,400,1800,400Z"/>
  </g>
  <g>
    <rect x="2100" y="200" width="100" height="100" transform="translate(4300 500) rotate(-180)" style="fill: none"/>
    <path d="M2133.33,217.49V200h33.34v17.49a24.79,24.79,0,0,1-4.17,13.76h0a24.79,24.79,0,0,0-4.17,13.76v10a24.79,24.79,0,0,0,4.17,13.76h0a24.79,24.79,0,0,1,4.17,13.76V300h-33.34V282.51a24.79,24.79,0,0,1,4.17-13.76h0a24.79,24.79,0,0,0,4.17-13.76V245a24.79,24.79,0,0,0-4.17-13.76h0A24.79,24.79,0,0,1,2133.33,217.49Z"/>
    <path d="M2200,225a12.5,12.5,0,0,1,0-25Z"/>
    <path d="M2200,250a12.5,12.5,0,0,1,0-25Z"/>
    <path d="M2200,275a12.5,12.5,0,0,1,0-25Z"/>
    <path d="M2200,300a12.5,12.5,0,0,1,0-25Z"/>
    <path d="M2100,275a12.5,12.5,0,0,1,0,25Z"/>
    <path d="M2100,250a12.5,12.5,0,0,1,0,25Z"/>
    <path d="M2100,225a12.5,12.5,0,0,1,0,25Z"/>
    <path d="M2100,200a12.5,12.5,0,0,1,0,25Z"/>
  </g>
  <g>
    <rect x="2000" y="200" width="100" height="100" transform="translate(4100 500) rotate(-180)" style="fill: none"/>
    <path d="M2100,250a12.5,12.5,0,0,1,0-25Z"/>
    <path d="M2100,300a12.5,12.5,0,0,1,0-25Z"/>
    <path d="M2000,250c24,0,39.19-7,52.63-13.2,13.18-6.07,25.63-11.8,47.37-11.8V200c-27.22,0-43.48,7.49-57.83,14.09C2029.46,220,2018.48,225,2000,225Z"/>
    <path d="M2000,300c24,0,39.19-7,52.63-13.2,13.18-6.07,25.63-11.8,47.37-11.8V250c-27.22,0-43.48,7.49-57.83,14.09C2029.46,270,2018.48,275,2000,275Z"/>
  </g>
  <g>
    <rect x="1500" y="300" width="100" height="100" transform="translate(3100 700) rotate(-180)" style="fill: none"/>
    <polygon points="1575 300 1600 300 1600 325 1575 300"/>
    <polygon points="1550 325 1550 300 1575 300 1550 325"/>
    <polygon points="1525 300 1550 300 1550 325 1525 300"/>
    <polygon points="1525 325 1500 325 1500 300 1525 325"/>
    <polygon points="1600 325 1600 350 1575 350 1600 325"/>
    <polygon points="1550 350 1550 325 1575 325 1550 350"/>
    <polygon points="1500 325 1525 325 1525 350 1500 325"/>
    <polygon points="1550 350 1525 350 1525 325 1550 350"/>
    <polygon points="1525 400 1500 400 1500 375 1525 400"/>
    <polygon points="1550 400 1525 400 1525 375 1550 400"/>
    <polygon points="1575 400 1550 400 1550 375 1575 400"/>
    <polygon points="1575 375 1600 375 1600 400 1575 375"/>
    <polygon points="1525 375 1525 350 1550 350 1525 375"/>
    <polygon points="1525 350 1525 375 1500 375 1525 350"/>
    <polygon points="1575 375 1550 375 1550 350 1575 375"/>
    <polygon points="1550 350 1575 350 1575 375 1550 350"/>
  </g>
  <g>
    <rect x="2100" y="300" width="100" height="100" transform="translate(1800 2500) rotate(-90)" style="fill: none"/>
    <polygon points="2200 375 2200 400 2175 400 2200 375"/>
    <polygon points="2175 350 2200 350 2200 375 2175 350"/>
    <polygon points="2200 325 2200 350 2175 350 2200 325"/>
    <polygon points="2175 325 2175 300 2200 300 2175 325"/>
    <polygon points="2175 400 2150 400 2150 375 2175 400"/>
    <polygon points="2150 350 2175 350 2175 375 2150 350"/>
    <polygon points="2175 300 2175 325 2150 325 2175 300"/>
    <polygon points="2150 350 2150 325 2175 325 2150 350"/>
    <polygon points="2100 325 2100 300 2125 300 2100 325"/>
    <polygon points="2100 350 2100 325 2125 325 2100 350"/>
    <polygon points="2100 375 2100 350 2125 350 2100 375"/>
    <polygon points="2125 375 2125 400 2100 400 2125 375"/>
    <polygon points="2125 325 2150 325 2150 350 2125 325"/>
    <polygon points="2150 325 2125 325 2125 300 2150 325"/>
    <polygon points="2125 375 2125 350 2150 350 2125 375"/>
    <polygon points="2150 350 2150 375 2125 375 2150 350"/>
  </g>
  <g>
    <rect x="1900" y="300.37" width="100" height="100" transform="translate(3900 700.73) rotate(-180)" style="fill: none"/>
    <rect x="1900" y="350.37" width="100" height="25" transform="translate(3900 725.73) rotate(-180)"/>
    <rect x="1900" y="300.37" width="100" height="25" transform="translate(3900 625.73) rotate(-180)"/>
  </g>
  <g>
    <rect x="1400" y="300" width="100" height="100" transform="translate(2900 700) rotate(-180)" style="fill: none"/>
    <path d="M1400,366.67c52.17,0,43.48,33.33,100,33.33V300c-56.52,0-47.83,33.33-100,33.33Z"/>
    <circle cx="1450" cy="350" r="16.67" style="fill: #fff"/>
  </g>
  <g>
    <rect x="1800" y="300.37" width="100" height="100" transform="translate(3700 700.73) rotate(180)" style="fill: none"/>
    <rect x="1850" y="350.37" width="50" height="25" transform="translate(3750 725.73) rotate(180)"/>
    <rect x="1850" y="300.37" width="50" height="25" transform="translate(3750 625.73) rotate(180)"/>
    <rect x="1800" y="375.37" width="50" height="25" transform="translate(3650 775.73) rotate(180)"/>
    <rect x="1800" y="325.37" width="50" height="25" transform="translate(3650 675.73) rotate(180)"/>
  </g>
  <g>
    <rect x="1500" y="400" width="100" height="100" transform="translate(3100 900) rotate(-180)" style="fill: none"/>
    <rect x="1550" y="425" width="50" height="25" transform="translate(3150 875) rotate(-180)"/>
    <rect x="1550" y="475" width="50" height="25" transform="translate(3150 975) rotate(-180)"/>
    <rect x="1500" y="400" width="50" height="25" transform="translate(3050 825) rotate(-180)"/>
    <rect x="1500" y="450" width="50" height="25" transform="translate(3050 925) rotate(-180)"/>
  </g>
  <g>
    <rect x="2300" y="300.37" width="100" height="100" transform="translate(4700 700.73) rotate(-180)" style="fill: none"/>
    <path d="M2331,333.7h-31V300.37h100V333.7h-31a14.29,14.29,0,0,0-13.15,8.67h0a20.31,20.31,0,0,0,0,16l9.22,21.51a20.38,20.38,0,0,1,1.64,8v12.5h-33.34v-12.5a20.38,20.38,0,0,1,1.64-8l9.22-21.51a20.31,20.31,0,0,0,0-16h0A14.29,14.29,0,0,0,2331,333.7Z"/>
    <circle cx="2368.75" cy="348.28" r="6.25" style="fill: #fff"/>
    <circle cx="2331.25" cy="348.28" r="6.25" style="fill: #fff"/>
  </g>
  <g>
    <rect x="750" y="350" width="200" height="100" transform="translate(1250 -450) rotate(90)" style="fill: none"/>
    <g>
      <polygon points="850 388.18 803.41 341.59 806.59 338.41 850 381.82 893.41 338.41 896.59 341.59 850 388.18"/>
      <polygon points="850 433.18 803.41 386.59 806.59 383.41 850 426.82 893.41 383.41 896.59 386.59 850 433.18"/>
      <polygon points="806.59 323.41 850 366.82 893.41 323.41 896.59 326.59 850 373.18 803.41 326.59 806.59 323.41"/>
      <polygon points="850 418.18 803.41 371.59 806.59 368.41 850 411.82 893.41 368.41 896.59 371.59 850 418.18"/>
      <polygon points="850 403.18 803.41 356.59 806.59 353.41 850 396.82 893.41 353.41 896.59 356.59 850 403.18"/>
      <polygon points="850 328.18 821.82 300 828.18 300 850 321.82 871.82 300 878.18 300 850 328.18"/>
      <polygon points="863.18 300 850 313.18 836.82 300 843.18 300 850 306.82 856.82 300 863.18 300"/>
      <polygon points="850 343.18 806.82 300 813.18 300 850 336.82 886.82 300 893.18 300 850 343.18"/>
      <polygon points="850 358.18 803.41 311.59 806.59 308.41 850 351.82 893.41 308.41 896.59 311.59 850 358.18"/>
      <polygon points="850 478.18 803.41 431.59 806.59 428.41 850 471.82 893.41 428.41 896.59 431.59 850 478.18"/>
      <polygon points="873.18 500 866.82 500 893.41 473.41 896.59 476.59 873.18 500"/>
      <polygon points="858.18 500 851.82 500 893.41 458.41 896.59 461.59 858.18 500"/>
      <polygon points="806.59 488.41 818.18 500 811.82 500 803.41 491.59 806.59 488.41"/>
      <polygon points="850 448.18 803.41 401.59 806.59 398.41 850 441.82 893.41 398.41 896.59 401.59 850 448.18"/>
      <polygon points="881.82 500 893.41 488.41 896.59 491.59 888.18 500 881.82 500"/>
      <polygon points="850 493.18 803.41 446.59 806.59 443.41 850 486.82 893.41 443.41 896.59 446.59 850 493.18"/>
      <polygon points="850 463.18 803.41 416.59 806.59 413.41 850 456.82 893.41 413.41 896.59 416.59 850 463.18"/>
      <polygon points="806.59 458.41 848.18 500 841.82 500 803.41 461.59 806.59 458.41"/>
      <polygon points="806.59 473.41 833.18 500 826.82 500 803.41 476.59 806.59 473.41"/>
    </g>
  </g>
  <g>
    <rect x="600" y="300" width="100" height="100" transform="translate(300 1000) rotate(-90)" style="fill: none"/>
    <path d="M600,300H700V400H666.67C666.67,355,600,335,600,300Z"/>
  </g>
  <g>
    <rect x="1000" y="400" width="100" height="100" transform="translate(2100 900) rotate(-180)" style="fill: none"/>
    <polygon points="1066.67 400 1100 400 1100 433.33 1066.67 400"/>
    <polygon points="1033.33 433.33 1033.33 400 1066.67 400 1033.33 433.33"/>
    <polygon points="1000 433.33 1000 400 1033.33 400 1000 433.33"/>
    <polygon points="1066.67 433.33 1100 433.33 1100 466.67 1066.67 433.33"/>
    <polygon points="1100 466.67 1100 500 1066.67 500 1100 466.67"/>
    <polygon points="1066.67 466.67 1066.67 500 1033.33 500 1066.67 466.67"/>
    <polygon points="1066.67 466.67 1033.33 466.67 1033.33 433.33 1066.67 466.67"/>
    <polygon points="1000 466.67 1000 433.33 1033.33 433.33 1000 466.67"/>
    <polygon points="1000 500 1000 466.67 1033.33 466.67 1000 500"/>
  </g>
  <g>
    <rect x="700" y="300" width="100" height="100" transform="translate(1500 700) rotate(-180)" style="fill: none"/>
    <path d="M775,325a25,25,0,0,1,25-25v25Z"/>
    <path d="M775,350a25,25,0,0,1,25-25v25Z"/>
    <path d="M775,375a25,25,0,0,1,25-25v25Z"/>
    <path d="M775,400a25,25,0,0,1,25-25v25Z"/>
    <path d="M750,325a25,25,0,0,1,25-25v25Z"/>
    <path d="M750,350a25,25,0,0,1,25-25v25Z"/>
    <path d="M750,375a25,25,0,0,1,25-25v25Z"/>
    <path d="M750,400a25,25,0,0,1,25-25v25Z"/>
    <path d="M725,325a25,25,0,0,1,25-25v25Z"/>
    <path d="M725,350a25,25,0,0,1,25-25v25Z"/>
    <path d="M725,375a25,25,0,0,1,25-25v25Z"/>
    <path d="M725,400a25,25,0,0,1,25-25v25Z"/>
    <path d="M700,325a25,25,0,0,1,25-25v25Z"/>
    <path d="M700,350a25,25,0,0,1,25-25v25Z"/>
    <path d="M700,375a25,25,0,0,1,25-25v25Z"/>
    <path d="M700,400a25,25,0,0,1,25-25v25Z"/>
  </g>
  <g>
    <rect x="2100" width="100" height="100" transform="translate(2100 2200) rotate(-90)" style="fill: none"/>
    <path d="M2125,75a25,25,0,0,0-25,25h25Z"/>
    <path d="M2150,75a25,25,0,0,0-25,25h25Z"/>
    <path d="M2175,75a25,25,0,0,0-25,25h25Z"/>
    <path d="M2200,75a25,25,0,0,0-25,25h25Z"/>
    <path d="M2125,50a25,25,0,0,0-25,25h25Z"/>
    <path d="M2150,50a25,25,0,0,0-25,25h25Z"/>
    <path d="M2175,50a25,25,0,0,0-25,25h25Z"/>
    <path d="M2200,50a25,25,0,0,0-25,25h25Z"/>
    <path d="M2125,25a25,25,0,0,0-25,25h25Z"/>
    <path d="M2150,25a25,25,0,0,0-25,25h25Z"/>
    <path d="M2175,25a25,25,0,0,0-25,25h25Z"/>
    <path d="M2200,25a25,25,0,0,0-25,25h25Z"/>
    <path d="M2125,0a25,25,0,0,0-25,25h25Z"/>
    <path d="M2150,0a25,25,0,0,0-25,25h25Z"/>
    <path d="M2175,0a25,25,0,0,0-25,25h25Z"/>
    <path d="M2200,0a25,25,0,0,0-25,25h25Z"/>
  </g>
  <g>
    <rect x="700" y="200" width="100" height="100" transform="translate(1500 500) rotate(180)" style="fill: none"/>
    <path d="M725,250a25,25,0,0,1-25,25v25c54.17,0,45.83-33.33,100-33.33V233.33c-54.17,0-45.83-33.33-100-33.33v25A25,25,0,0,1,725,250Z"/>
  </g>
  <g>
    <rect x="1100" y="200" width="100" height="100" style="fill: none"/>
    <g>
      <rect x="1102.93" y="209" width="14.14" height="2" transform="translate(176.62 846.4) rotate(-45)"/>
      <rect x="1107.93" y="209" width="14.14" height="2" transform="translate(178.08 849.93) rotate(-45)"/>
      <polygon points="1115.71 215.71 1125.71 205.71 1124.29 204.29 1114.29 214.29 1104.29 224.29 1105.71 225.71 1115.71 215.71"/>
      <polygon points="1109.29 224.29 1110.71 225.71 1120.71 215.71 1130.71 205.71 1129.29 204.29 1119.29 214.29 1109.29 224.29"/>
      <polygon points="1119.29 224.29 1109.29 234.29 1110.71 235.71 1120.71 225.71 1130.71 215.71 1140.71 205.71 1139.29 204.29 1129.29 214.29 1119.29 224.29"/>
      <polygon points="1129.29 224.29 1119.29 234.29 1109.29 244.29 1110.71 245.71 1120.71 235.71 1130.71 225.71 1140.71 215.71 1150.71 205.71 1149.29 204.29 1139.29 214.29 1129.29 224.29"/>
      <polygon points="1139.29 224.29 1129.29 234.29 1119.29 244.29 1109.29 254.29 1110.71 255.71 1120.71 245.71 1130.71 235.71 1140.71 225.71 1150.71 215.71 1160.71 205.71 1159.29 204.29 1149.29 214.29 1139.29 224.29"/>
      <polygon points="1149.29 224.29 1139.29 234.29 1129.29 244.29 1119.29 254.29 1109.29 264.29 1110.71 265.71 1120.71 255.71 1130.71 245.71 1140.71 235.71 1150.71 225.71 1160.71 215.71 1170.71 205.71 1169.29 204.29 1159.29 214.29 1149.29 224.29"/>
      <polygon points="1159.29 224.29 1149.29 234.29 1139.29 244.29 1129.29 254.29 1119.29 264.29 1109.29 274.29 1110.71 275.71 1120.71 265.71 1130.71 255.71 1140.71 245.71 1150.71 235.71 1160.71 225.71 1170.71 215.71 1180.71 205.71 1179.29 204.29 1169.29 214.29 1159.29 224.29"/>
      <polygon points="1169.29 224.29 1159.29 234.29 1149.29 244.29 1139.29 254.29 1129.29 264.29 1119.29 274.29 1109.29 284.29 1110.71 285.71 1120.71 275.71 1130.71 265.71 1140.71 255.71 1150.71 245.71 1160.71 235.71 1170.71 225.71 1180.71 215.71 1190.71 205.71 1189.29 204.29 1179.29 214.29 1169.29 224.29"/>
      <polygon points="1184.29 224.29 1174.29 234.29 1164.29 244.29 1154.29 254.29 1144.29 264.29 1134.29 274.29 1124.29 284.29 1114.29 294.29 1115.71 295.71 1125.71 285.71 1135.71 275.71 1145.71 265.71 1155.71 255.71 1165.71 245.71 1175.71 235.71 1185.71 225.71 1195.71 215.71 1194.29 214.29 1184.29 224.29"/>
      <polygon points="1115.71 225.71 1125.71 215.71 1135.71 205.71 1134.29 204.29 1124.29 214.29 1114.29 224.29 1104.29 234.29 1105.71 235.71 1115.71 225.71"/>
      <polygon points="1184.29 234.29 1174.29 244.29 1164.29 254.29 1154.29 264.29 1144.29 274.29 1134.29 284.29 1124.29 294.29 1125.71 295.71 1135.71 285.71 1145.71 275.71 1155.71 265.71 1165.71 255.71 1175.71 245.71 1185.71 235.71 1195.71 225.71 1194.29 224.29 1184.29 234.29"/>
      <polygon points="1115.71 235.71 1125.71 225.71 1135.71 215.71 1145.71 205.71 1144.29 204.29 1134.29 214.29 1124.29 224.29 1114.29 234.29 1104.29 244.29 1105.71 245.71 1115.71 235.71"/>
      <polygon points="1184.29 244.29 1174.29 254.29 1164.29 264.29 1154.29 274.29 1144.29 284.29 1134.29 294.29 1135.71 295.71 1145.71 285.71 1155.71 275.71 1165.71 265.71 1175.71 255.71 1185.71 245.71 1195.71 235.71 1194.29 234.29 1184.29 244.29"/>
      <polygon points="1115.71 245.71 1125.71 235.71 1135.71 225.71 1145.71 215.71 1155.71 205.71 1154.29 204.29 1144.29 214.29 1134.29 224.29 1124.29 234.29 1114.29 244.29 1104.29 254.29 1105.71 255.71 1115.71 245.71"/>
      <polygon points="1184.29 254.29 1174.29 264.29 1164.29 274.29 1154.29 284.29 1144.29 294.29 1145.71 295.71 1155.71 285.71 1165.71 275.71 1175.71 265.71 1185.71 255.71 1195.71 245.71 1194.29 244.29 1184.29 254.29"/>
      <polygon points="1115.71 255.71 1125.71 245.71 1135.71 235.71 1145.71 225.71 1155.71 215.71 1165.71 205.71 1164.29 204.29 1154.29 214.29 1144.29 224.29 1134.29 234.29 1124.29 244.29 1114.29 254.29 1104.29 264.29 1105.71 265.71 1115.71 255.71"/>
      <polygon points="1184.29 264.29 1174.29 274.29 1164.29 284.29 1154.29 294.29 1155.71 295.71 1165.71 285.71 1175.71 275.71 1185.71 265.71 1195.71 255.71 1194.29 254.29 1184.29 264.29"/>
      <polygon points="1115.71 265.71 1125.71 255.71 1135.71 245.71 1145.71 235.71 1155.71 225.71 1165.71 215.71 1175.71 205.71 1174.29 204.29 1164.29 214.29 1154.29 224.29 1144.29 234.29 1134.29 244.29 1124.29 254.29 1114.29 264.29 1104.29 274.29 1105.71 275.71 1115.71 265.71"/>
      <polygon points="1184.29 274.29 1174.29 284.29 1164.29 294.29 1165.71 295.71 1175.71 285.71 1185.71 275.71 1195.71 265.71 1194.29 264.29 1184.29 274.29"/>
      <polygon points="1115.71 275.71 1125.71 265.71 1135.71 255.71 1145.71 245.71 1155.71 235.71 1165.71 225.71 1175.71 215.71 1185.71 205.71 1184.29 204.29 1174.29 214.29 1164.29 224.29 1154.29 234.29 1144.29 244.29 1134.29 254.29 1124.29 264.29 1114.29 274.29 1104.29 284.29 1105.71 285.71 1115.71 275.71"/>
      <polygon points="1125.71 275.71 1135.71 265.71 1145.71 255.71 1155.71 245.71 1165.71 235.71 1175.71 225.71 1185.71 215.71 1195.71 205.71 1194.29 204.29 1184.29 214.29 1174.29 224.29 1164.29 234.29 1154.29 244.29 1144.29 254.29 1134.29 264.29 1124.29 274.29 1114.29 284.29 1104.29 294.29 1105.71 295.71 1115.71 285.71 1125.71 275.71"/>
      <polygon points="1130.71 275.71 1140.71 265.71 1150.71 255.71 1160.71 245.71 1170.71 235.71 1180.71 225.71 1190.71 215.71 1189.29 214.29 1179.29 224.29 1169.29 234.29 1159.29 244.29 1149.29 254.29 1139.29 264.29 1129.29 274.29 1119.29 284.29 1109.29 294.29 1110.71 295.71 1120.71 285.71 1130.71 275.71"/>
      <polygon points="1140.71 275.71 1150.71 265.71 1160.71 255.71 1170.71 245.71 1180.71 235.71 1190.71 225.71 1189.29 224.29 1179.29 234.29 1169.29 244.29 1159.29 254.29 1149.29 264.29 1139.29 274.29 1129.29 284.29 1119.29 294.29 1120.71 295.71 1130.71 285.71 1140.71 275.71"/>
      <polygon points="1150.71 275.71 1160.71 265.71 1170.71 255.71 1180.71 245.71 1190.71 235.71 1189.29 234.29 1179.29 244.29 1169.29 254.29 1159.29 264.29 1149.29 274.29 1139.29 284.29 1129.29 294.29 1130.71 295.71 1140.71 285.71 1150.71 275.71"/>
      <polygon points="1160.71 275.71 1170.71 265.71 1180.71 255.71 1190.71 245.71 1189.29 244.29 1179.29 254.29 1169.29 264.29 1159.29 274.29 1149.29 284.29 1139.29 294.29 1140.71 295.71 1150.71 285.71 1160.71 275.71"/>
      <polygon points="1170.71 275.71 1180.71 265.71 1190.71 255.71 1189.29 254.29 1179.29 264.29 1169.29 274.29 1159.29 284.29 1149.29 294.29 1150.71 295.71 1160.71 285.71 1170.71 275.71"/>
      <polygon points="1180.71 275.71 1190.71 265.71 1189.29 264.29 1179.29 274.29 1169.29 284.29 1159.29 294.29 1160.71 295.71 1170.71 285.71 1180.71 275.71"/>
      <polygon points="1190.71 275.71 1189.29 274.29 1179.29 284.29 1169.29 294.29 1170.71 295.71 1180.71 285.71 1190.71 275.71"/>
      <polygon points="1184.29 284.29 1174.29 294.29 1175.71 295.71 1185.71 285.71 1195.71 275.71 1194.29 274.29 1184.29 284.29"/>
      <rect x="1177.93" y="289" width="14.14" height="2" transform="translate(142.02 922.86) rotate(-45)"/>
      <rect x="1182.93" y="289" width="14.14" height="2" transform="translate(143.48 926.4) rotate(-45)"/>
    </g>
  </g>
  <g>
    <rect x="1900" width="100" height="100" style="fill: none"/>
    <g>
      <rect x="1902.93" y="9" width="14.14" height="2" transform="translate(552.35 1353.5) rotate(-45)"/>
      <rect x="1907.93" y="9" width="14.14" height="2" transform="translate(553.82 1357.04) rotate(-45)"/>
      <polygon points="1915.71 15.71 1925.71 5.71 1924.29 4.29 1914.29 14.29 1904.29 24.29 1905.71 25.71 1915.71 15.71"/>
      <polygon points="1909.29 24.29 1910.71 25.71 1920.71 15.71 1930.71 5.71 1929.29 4.29 1919.29 14.29 1909.29 24.29"/>
      <polygon points="1919.29 24.29 1909.29 34.29 1910.71 35.71 1920.71 25.71 1930.71 15.71 1940.71 5.71 1939.29 4.29 1929.29 14.29 1919.29 24.29"/>
      <polygon points="1929.29 24.29 1919.29 34.29 1909.29 44.29 1910.71 45.71 1920.71 35.71 1930.71 25.71 1940.71 15.71 1950.71 5.71 1949.29 4.29 1939.29 14.29 1929.29 24.29"/>
      <polygon points="1939.29 24.29 1929.29 34.29 1919.29 44.29 1909.29 54.29 1910.71 55.71 1920.71 45.71 1930.71 35.71 1940.71 25.71 1950.71 15.71 1960.71 5.71 1959.29 4.29 1949.29 14.29 1939.29 24.29"/>
      <polygon points="1949.29 24.29 1939.29 34.29 1929.29 44.29 1919.29 54.29 1909.29 64.29 1910.71 65.71 1920.71 55.71 1930.71 45.71 1940.71 35.71 1950.71 25.71 1960.71 15.71 1970.71 5.71 1969.29 4.29 1959.29 14.29 1949.29 24.29"/>
      <polygon points="1959.29 24.29 1949.29 34.29 1939.29 44.29 1929.29 54.29 1919.29 64.29 1909.29 74.29 1910.71 75.71 1920.71 65.71 1930.71 55.71 1940.71 45.71 1950.71 35.71 1960.71 25.71 1970.71 15.71 1980.71 5.71 1979.29 4.29 1969.29 14.29 1959.29 24.29"/>
      <polygon points="1969.29 24.29 1959.29 34.29 1949.29 44.29 1939.29 54.29 1929.29 64.29 1919.29 74.29 1909.29 84.29 1910.71 85.71 1920.71 75.71 1930.71 65.71 1940.71 55.71 1950.71 45.71 1960.71 35.71 1970.71 25.71 1980.71 15.71 1990.71 5.71 1989.29 4.29 1979.29 14.29 1969.29 24.29"/>
      <polygon points="1984.29 24.29 1974.29 34.29 1964.29 44.29 1954.29 54.29 1944.29 64.29 1934.29 74.29 1924.29 84.29 1914.29 94.29 1915.71 95.71 1925.71 85.71 1935.71 75.71 1945.71 65.71 1955.71 55.71 1965.71 45.71 1975.71 35.71 1985.71 25.71 1995.71 15.71 1994.29 14.29 1984.29 24.29"/>
      <polygon points="1915.71 25.71 1925.71 15.71 1935.71 5.71 1934.29 4.29 1924.29 14.29 1914.29 24.29 1904.29 34.29 1905.71 35.71 1915.71 25.71"/>
      <polygon points="1984.29 34.29 1974.29 44.29 1964.29 54.29 1954.29 64.29 1944.29 74.29 1934.29 84.29 1924.29 94.29 1925.71 95.71 1935.71 85.71 1945.71 75.71 1955.71 65.71 1965.71 55.71 1975.71 45.71 1985.71 35.71 1995.71 25.71 1994.29 24.29 1984.29 34.29"/>
      <polygon points="1915.71 35.71 1925.71 25.71 1935.71 15.71 1945.71 5.71 1944.29 4.29 1934.29 14.29 1924.29 24.29 1914.29 34.29 1904.29 44.29 1905.71 45.71 1915.71 35.71"/>
      <polygon points="1984.29 44.29 1974.29 54.29 1964.29 64.29 1954.29 74.29 1944.29 84.29 1934.29 94.29 1935.71 95.71 1945.71 85.71 1955.71 75.71 1965.71 65.71 1975.71 55.71 1985.71 45.71 1995.71 35.71 1994.29 34.29 1984.29 44.29"/>
      <polygon points="1915.71 45.71 1925.71 35.71 1935.71 25.71 1945.71 15.71 1955.71 5.71 1954.29 4.29 1944.29 14.29 1934.29 24.29 1924.29 34.29 1914.29 44.29 1904.29 54.29 1905.71 55.71 1915.71 45.71"/>
      <polygon points="1984.29 54.29 1974.29 64.29 1964.29 74.29 1954.29 84.29 1944.29 94.29 1945.71 95.71 1955.71 85.71 1965.71 75.71 1975.71 65.71 1985.71 55.71 1995.71 45.71 1994.29 44.29 1984.29 54.29"/>
      <polygon points="1915.71 55.71 1925.71 45.71 1935.71 35.71 1945.71 25.71 1955.71 15.71 1965.71 5.71 1964.29 4.29 1954.29 14.29 1944.29 24.29 1934.29 34.29 1924.29 44.29 1914.29 54.29 1904.29 64.29 1905.71 65.71 1915.71 55.71"/>
      <polygon points="1984.29 64.29 1974.29 74.29 1964.29 84.29 1954.29 94.29 1955.71 95.71 1965.71 85.71 1975.71 75.71 1985.71 65.71 1995.71 55.71 1994.29 54.29 1984.29 64.29"/>
      <polygon points="1915.71 65.71 1925.71 55.71 1935.71 45.71 1945.71 35.71 1955.71 25.71 1965.71 15.71 1975.71 5.71 1974.29 4.29 1964.29 14.29 1954.29 24.29 1944.29 34.29 1934.29 44.29 1924.29 54.29 1914.29 64.29 1904.29 74.29 1905.71 75.71 1915.71 65.71"/>
      <polygon points="1984.29 74.29 1974.29 84.29 1964.29 94.29 1965.71 95.71 1975.71 85.71 1985.71 75.71 1995.71 65.71 1994.29 64.29 1984.29 74.29"/>
      <polygon points="1915.71 75.71 1925.71 65.71 1935.71 55.71 1945.71 45.71 1955.71 35.71 1965.71 25.71 1975.71 15.71 1985.71 5.71 1984.29 4.29 1974.29 14.29 1964.29 24.29 1954.29 34.29 1944.29 44.29 1934.29 54.29 1924.29 64.29 1914.29 74.29 1904.29 84.29 1905.71 85.71 1915.71 75.71"/>
      <polygon points="1925.71 75.71 1935.71 65.71 1945.71 55.71 1955.71 45.71 1965.71 35.71 1975.71 25.71 1985.71 15.71 1995.71 5.71 1994.29 4.29 1984.29 14.29 1974.29 24.29 1964.29 34.29 1954.29 44.29 1944.29 54.29 1934.29 64.29 1924.29 74.29 1914.29 84.29 1904.29 94.29 1905.71 95.71 1915.71 85.71 1925.71 75.71"/>
      <polygon points="1930.71 75.71 1940.71 65.71 1950.71 55.71 1960.71 45.71 1970.71 35.71 1980.71 25.71 1990.71 15.71 1989.29 14.29 1979.29 24.29 1969.29 34.29 1959.29 44.29 1949.29 54.29 1939.29 64.29 1929.29 74.29 1919.29 84.29 1909.29 94.29 1910.71 95.71 1920.71 85.71 1930.71 75.71"/>
      <polygon points="1940.71 75.71 1950.71 65.71 1960.71 55.71 1970.71 45.71 1980.71 35.71 1990.71 25.71 1989.29 24.29 1979.29 34.29 1969.29 44.29 1959.29 54.29 1949.29 64.29 1939.29 74.29 1929.29 84.29 1919.29 94.29 1920.71 95.71 1930.71 85.71 1940.71 75.71"/>
      <polygon points="1950.71 75.71 1960.71 65.71 1970.71 55.71 1980.71 45.71 1990.71 35.71 1989.29 34.29 1979.29 44.29 1969.29 54.29 1959.29 64.29 1949.29 74.29 1939.29 84.29 1929.29 94.29 1930.71 95.71 1940.71 85.71 1950.71 75.71"/>
      <polygon points="1960.71 75.71 1970.71 65.71 1980.71 55.71 1990.71 45.71 1989.29 44.29 1979.29 54.29 1969.29 64.29 1959.29 74.29 1949.29 84.29 1939.29 94.29 1940.71 95.71 1950.71 85.71 1960.71 75.71"/>
      <polygon points="1970.71 75.71 1980.71 65.71 1990.71 55.71 1989.29 54.29 1979.29 64.29 1969.29 74.29 1959.29 84.29 1949.29 94.29 1950.71 95.71 1960.71 85.71 1970.71 75.71"/>
      <polygon points="1980.71 75.71 1990.71 65.71 1989.29 64.29 1979.29 74.29 1969.29 84.29 1959.29 94.29 1960.71 95.71 1970.71 85.71 1980.71 75.71"/>
      <polygon points="1990.71 75.71 1989.29 74.29 1979.29 84.29 1969.29 94.29 1970.71 95.71 1980.71 85.71 1990.71 75.71"/>
      <polygon points="1984.29 84.29 1974.29 94.29 1975.71 95.71 1985.71 85.71 1995.71 75.71 1994.29 74.29 1984.29 84.29"/>
      <rect x="1977.93" y="89" width="14.14" height="2" transform="translate(517.75 1429.97) rotate(-45)"/>
      <rect x="1982.93" y="89" width="14.14" height="2" transform="translate(519.22 1433.5) rotate(-45)"/>
    </g>
  </g>
  <g>
    <rect x="2200" y="300" width="100" height="100" style="fill: none"/>
    <path d="M2295.83,333.33c1.4,0,2.79.05,4.17.14V300H2200V400h29.17A66.66,66.66,0,0,1,2295.83,333.33Z"/>
    <circle cx="2229.17" cy="329.17" r="12.5" style="fill: #fff"/>
    <path d="M2300,366.67A33.33,33.33,0,0,0,2266.67,400H2300Z"/>
  </g>
  <g>
    <rect x="2000" width="100" height="100" transform="translate(2100 -2000) rotate(90)" style="fill: none"/>
    <path d="M2066.67,95.83c0,1.4-.05,2.79-.14,4.17H2100V0H2000V29.17A66.66,66.66,0,0,1,2066.67,95.83Z"/>
    <circle cx="2070.83" cy="29.17" r="12.5" style="fill: #fff"/>
    <path d="M2033.33,100A33.33,33.33,0,0,0,2000,66.67V100Z"/>
  </g>
  <g>
    <rect x="100" y="100" width="100" height="100" style="fill: none"/>
    <path d="M195.83,133.33c1.4,0,2.79,0,4.17.14V100H100V200h29.17A66.66,66.66,0,0,1,195.83,133.33Z"/>
    <circle cx="129.17" cy="129.17" r="12.5" style="fill: #fff"/>
    <path d="M200,166.67A33.33,33.33,0,0,0,166.67,200H200Z"/>
  </g>
  <g>
    <rect x="700" y="400" width="100" height="100" transform="translate(1200 -300) rotate(90)" style="fill: none"/>
    <rect x="700" y="450" width="62.5" height="25"/>
    <rect x="781.25" y="481.25" width="12.5" height="25" transform="translate(293.75 1281.25) rotate(-90)"/>
    <rect x="700" y="400" width="12.5" height="25"/>
    <rect x="731.25" y="431.25" width="12.5" height="25" transform="translate(293.75 1181.25) rotate(-90)"/>
    <path d="M775,487.5A12.52,12.52,0,0,0,762.5,475V450A37.54,37.54,0,0,1,800,487.5Z"/>
    <path d="M725,437.5A12.52,12.52,0,0,0,712.5,425V400A37.54,37.54,0,0,1,750,437.5Z"/>
  </g>
  <g>
    <rect x="2200" width="100" height="100" transform="translate(2300 -2200) rotate(90)" style="fill: none"/>
    <rect x="2200" y="50" width="62.5" height="25"/>
    <rect x="2281.25" y="81.25" width="12.5" height="25" transform="translate(2193.75 2381.25) rotate(-90)"/>
    <rect x="2200" width="12.5" height="25"/>
    <rect x="2231.25" y="31.25" width="12.5" height="25" transform="translate(2193.75 2281.25) rotate(-90)"/>
    <path d="M2275,87.5A12.52,12.52,0,0,0,2262.5,75V50A37.54,37.54,0,0,1,2300,87.5Z"/>
    <path d="M2225,37.5A12.52,12.52,0,0,0,2212.5,25V0A37.54,37.54,0,0,1,2250,37.5Z"/>
  </g>
  <g>
    <rect x="2200" y="100" width="100" height="100" transform="translate(4500 300) rotate(-180)" style="fill: none"/>
    <rect x="2206.25" y="118.75" width="62.5" height="25" transform="translate(2368.75 -2106.25) rotate(90)"/>
    <rect x="2200" y="175" width="12.5" height="25"/>
    <rect x="2281.25" y="93.75" width="12.5" height="25" transform="translate(2393.75 -2181.25) rotate(90)"/>
    <rect x="2250" y="125" width="12.5" height="25"/>
    <path d="M2212.5,175a12.52,12.52,0,0,0,12.5-12.5h25a37.54,37.54,0,0,1-37.5,37.5Z"/>
    <path d="M2262.5,125a12.52,12.52,0,0,0,12.5-12.5h25a37.54,37.54,0,0,1-37.5,37.5Z"/>
  </g>
  <g>
    <rect x="2200" y="400" width="100" height="100" transform="translate(4500 900) rotate(-180)" style="fill: none"/>
    <rect x="2206.25" y="418.75" width="62.5" height="25" transform="translate(2668.75 -1806.25) rotate(90)"/>
    <rect x="2200" y="475" width="12.5" height="25"/>
    <rect x="2281.25" y="393.75" width="12.5" height="25" transform="translate(2693.75 -1881.25) rotate(90)"/>
    <rect x="2250" y="425" width="12.5" height="25"/>
    <path d="M2212.5,475a12.52,12.52,0,0,0,12.5-12.5h25a37.54,37.54,0,0,1-37.5,37.5Z"/>
    <path d="M2262.5,425a12.52,12.52,0,0,0,12.5-12.5h25a37.54,37.54,0,0,1-37.5,37.5Z"/>
  </g>
  <g>
    <rect x="1100" width="100" height="100" transform="translate(1200 -1100) rotate(90)" style="fill: none"/>
    <rect x="1100" y="50" width="62.5" height="25"/>
    <rect x="1181.25" y="81.25" width="12.5" height="25" transform="translate(1093.75 1281.25) rotate(-90)"/>
    <rect x="1100" width="12.5" height="25"/>
    <rect x="1131.25" y="31.25" width="12.5" height="25" transform="translate(1093.75 1181.25) rotate(-90)"/>
    <path d="M1175,87.5A12.52,12.52,0,0,0,1162.5,75V50A37.54,37.54,0,0,1,1200,87.5Z"/>
    <path d="M1125,37.5A12.52,12.52,0,0,0,1112.5,25V0A37.54,37.54,0,0,1,1150,37.5Z"/>
  </g>
  <g>
    <rect x="1237.5" y="337.5" width="25" height="25" style="fill: #fff"/>
    <path d="M1262.5,325H1250V300h-25v25h-25v25h25v25h50V325Zm0,37.5h-25V350H1250V337.5h12.5Z"/>
    <rect x="1200" y="300" width="100" height="100" style="fill: none"/>
  </g>
  <g>
    <rect x="1837.5" y="37.5" width="25" height="25" style="fill: #fff"/>
    <path d="M1862.5,25H1850V0h-25V25h-25V50h25V75h50V25Zm0,37.5h-25V50H1850V37.5h12.5Z"/>
    <rect x="1800" width="100" height="100" style="fill: none"/>
  </g>
  <g>
    <rect x="937.5" y="337.5" width="25" height="25" transform="translate(600 1300) rotate(-90)" style="fill: #fff"/>
    <path d="M925,337.5V350H900v25h25v25h25V375h25V325H925Zm37.5,0v25H950V350H937.5V337.5Z"/>
    <rect x="900" y="300" width="100" height="100" transform="translate(600 1300) rotate(-90)" style="fill: none"/>
  </g>
  <g>
    <rect x="537.5" y="437.5" width="25" height="25" transform="translate(100 1000) rotate(-90)" style="fill: #fff"/>
    <path d="M525,437.5V450H500v25h25v25h25V475h25V425H525Zm37.5,0v25H550V450H537.5V437.5Z"/>
    <rect x="500" y="400" width="100" height="100" transform="translate(100 1000) rotate(-90)" style="fill: none"/>
  </g>
  <polygon points="1225 225 1225 250 1250 250 1225 225" style="fill: #ff3e3e"/>
  <circle cx="1312.5" cy="449.5" r="8.5" style="fill: #ff3e3e"/>
  <circle cx="1184.5" cy="18.5" r="8.5" style="fill: #ff3e3e"/>
  <path d="M2300,466.67A33.33,33.33,0,0,0,2266.67,500H2300Z" style="fill: #ff3e3e"/>
  <rect x="2300" width="25" height="25" style="fill: #ff3e3e"/>
  <path d="M201,75a25,25,0,0,1,0-50Z" style="fill: #ff3e3e"/>
  <circle cx="1650" cy="150" r="16.67" style="fill: #ff3e3e"/>
  <path d="M500,275a25,25,0,0,1,0-50Z" style="fill: #ff3e3e"/>
</svg>
