<?xml version="1.0" encoding="utf-8"?>
<!-- Generator: Adobe Illustrator 23.0.4, SVG Export Plug-In . SVG Version: 6.00 Build 0)  -->
<svg version="1.1" id="Layer_1" xmlns="http://www.w3.org/2000/svg" xmlns:xlink="http://www.w3.org/1999/xlink" x="0px" y="0px"
	 viewBox="0 0 200 200" style="enable-background:new 0 0 200 200;" xml:space="preserve">
<path d="M151.96,41.59H48.04c-3.56,0-6.45,2.89-6.45,6.45v103.92c0,3.56,2.89,6.45,6.45,6.45h55.95v-45.24H88.76V95.54h15.23v-13
	c0-15.09,9.22-23.31,22.68-23.31c6.45,0,11.99,0.48,13.6,0.69V75.7l-9.34,0c-7.32,0-8.74,3.48-8.74,8.58v11.25h17.46l-2.27,17.63
	h-15.19v45.24h29.77c3.56,0,6.45-2.89,6.45-6.45V48.04C158.41,44.48,155.52,41.59,151.96,41.59"/>
</svg>
