<?xml version="1.0" encoding="utf-8"?>
<!-- Generator: Adobe Illustrator 23.0.4, SVG Export Plug-In . SVG Version: 6.00 Build 0)  -->
<svg version="1.1" id="Layer_1" xmlns="http://www.w3.org/2000/svg" xmlns:xlink="http://www.w3.org/1999/xlink" x="0px" y="0px"
	 viewBox="0 0 200 200" style="enable-background:new 0 0 200 200;" xml:space="preserve">
<g>
	<path d="M120.4,150.21H79.6c-15.7,0-28.42-12.82-28.42-28.42V78.21c0-15.6,12.71-28.42,28.42-28.42h40.81
		c15.6,0,28.42,12.82,28.42,28.42v43.48C148.82,137.39,136.11,150.21,120.4,150.21z M120.4,142.62c5.55,0,10.79-2.14,14.74-6.2
		c3.95-4.06,6.2-9.19,6.2-14.74V78.21c0-5.55-2.14-10.79-6.2-14.74c-4.06-3.95-9.19-6.2-14.74-6.2H79.6
		c-5.55,0-10.79,2.14-14.74,6.2s-6.2,9.19-6.2,14.74v43.48c0,5.55,2.14,10.79,6.2,14.74c4.06,3.95,9.19,6.2,14.74,6.2
		C79.6,142.62,120.4,142.62,120.4,142.62z"/>
	<path d="M127.03,99.57c0,14.85-12.07,26.92-26.92,26.92s-26.81-12.07-26.81-26.92s12.07-26.92,26.92-26.92
		S127.03,84.72,127.03,99.57z M100,82.05c-9.72,0-17.63,7.91-17.63,17.63S90.28,117.2,100,117.2s17.63-7.91,17.63-17.63
		S109.72,82.05,100,82.05z"/>
	<circle cx="127.45" cy="72.33" r="6.41"/>
</g>
</svg>
