<?xml version="1.0" encoding="utf-8"?>
<!-- Generator: Adobe Illustrator 23.0.4, SVG Export Plug-In . SVG Version: 6.00 Build 0)  -->
<svg version="1.1" id="Layer_1" xmlns="http://www.w3.org/2000/svg" xmlns:xlink="http://www.w3.org/1999/xlink" x="0px" y="0px"
	 viewBox="0 0 200 200" style="enable-background:new 0 0 200 200;" xml:space="preserve">
<style type="text/css">
	.st0{fill-rule:evenodd;clip-rule:evenodd;}
</style>
<path class="st0" d="M79.48,147.13c43.77,0,67.72-36.27,67.72-67.72c0-1.03,0-2.05-0.07-3.07c4.66-3.37,8.68-7.54,11.87-12.32
	c-4.34,1.93-8.95,3.19-13.67,3.74c4.97-2.97,8.69-7.65,10.47-13.16c-4.67,2.77-9.79,4.73-15.11,5.77c-4.5-4.78-10.78-7.5-17.36-7.5
	c-13.07,0-23.82,10.76-23.82,23.82c0,1.81,0.21,3.62,0.62,5.39C81,81.12,63.15,72.07,51.07,57.22c-6.28,10.81-3.03,24.82,7.37,31.77
	c-3.79-0.11-7.5-1.13-10.8-2.98c0,0.1,0,0.2,0,0.3c0,11.29,8.03,21.1,19.09,23.33c-3.5,0.95-7.18,1.09-10.75,0.41
	c3.11,9.67,12.08,16.34,22.24,16.52c-8.43,6.63-18.84,10.22-29.56,10.21c-1.89-0.01-3.79-0.12-5.67-0.34
	c10.88,6.99,23.55,10.69,36.48,10.67C79.48,147.11,79.48,147.13,79.48,147.13z"/>
</svg>
