<?xml version="1.0" encoding="utf-8"?>
<!-- Generator: Adobe Illustrator 23.0.4, SVG Export Plug-In . SVG Version: 6.00 Build 0)  -->
<svg version="1.1" xmlns="http://www.w3.org/2000/svg" xmlns:xlink="http://www.w3.org/1999/xlink" x="0px" y="0px"
	 viewBox="0 0 745.98 131.3" style="enable-background:new 0 0 745.98 131.3;" xml:space="preserve">
<style type="text/css">
	.st0{fill:#FFFFFF;}
</style>
<g id="Layer_2">
</g>
<g id="Layer_1">
	<path class="st0" d="M5.09,62.43l49.55,49.55L27.68,58.06l2.66-1.1l28.35,56.71l28.35-56.69l2.66,1.1l-26.94,53.89l49.55-49.55
		L58.7,40.35L5.09,62.43z M58.7,37.24l52.17-21.48L95.09,47.33l-2.66-1.1l12.44-24.89L62.48,38.8l54.92,22.62l-58.7,58.7l0,0
		L0,61.41L54.92,38.8L12.53,21.34l12.43,24.85l-2.66,1.1L6.53,15.76L58.7,37.24z"/>
	<path class="st0" d="M168.39,43.64v24.98h32.88v5.81h-32.88v26.98h-6.72V37.82h43.6v5.81L168.39,43.64L168.39,43.64z"/>
	<path class="st0" d="M262.59,101.41l-14.53-20.44c-1.63,0.18-3.27,0.27-5.09,0.27H225.9v20.17h-6.72V37.82h23.8
		c16.17,0,25.98,8.18,25.98,21.8c0,9.99-5.27,16.99-14.53,19.98l15.53,21.8h-7.36V101.41z M262.22,59.62
		c0-10.17-6.72-15.99-19.44-15.99h-16.9v31.88h16.9C255.5,75.52,262.22,69.61,262.22,59.62z"/>
	<path class="st0" d="M284.84,37.82h6.72v63.58h-6.72V37.82z"/>
	<path class="st0" d="M348.7,83.15c0,10.63-7.72,18.8-23.07,18.8c-9.17,0-17.99-3.18-22.89-8.18l3.18-5.18
		c4.09,4.27,11.45,7.36,19.71,7.36c10.54,0,16.35-4.91,16.35-12.81c0-7.63-5.36-12.63-17.17-12.63h-4.54V65.7l17.62-22.07h-32.52
		v-5.81h40.88v4.63l-17.99,22.62C341.89,65.8,348.7,72.98,348.7,83.15z"/>
	<path class="st0" d="M363.51,37.82h25.89c20.35,0,34.06,13.08,34.06,31.79s-13.72,31.79-34.06,31.79H363.5L363.51,37.82
		L363.51,37.82z M389.02,95.59c16.9,0,27.8-10.72,27.8-25.98s-10.9-25.98-27.8-25.98h-18.8v51.96H389.02z"/>
	<g>
		<path class="st0" d="M468.81,70.16c0-18.62,14.17-32.34,33.34-32.34c9.27,0,17.62,3.09,23.25,9.27l-4.27,4.27
			c-5.18-5.27-11.54-7.54-18.8-7.54c-15.35,0-26.89,11.26-26.89,26.34s11.54,26.34,26.89,26.34c7.27,0,13.63-2.27,18.8-7.63
			l4.27,4.27c-5.63,6.18-13.99,9.36-23.34,9.36C482.98,102.5,468.81,88.79,468.81,70.16z"/>
		<path class="st0" d="M577.99,84.97h-35.43l-7.63,16.99h-6.99l29.07-63.58h6.63l29.07,63.58h-7.08L577.99,84.97z M575.54,79.52
			l-15.26-34.15l-15.26,34.15H575.54z"/>
		<path class="st0" d="M669.28,38.37v63.58h-6.45V51.08l-24.98,42.78h-3.18l-24.98-42.51v50.6h-6.45V38.37h5.54l27.61,47.14
			l27.34-47.14C663.73,38.37,669.28,38.37,669.28,38.37z"/>
		<path class="st0" d="M739.76,60.17c0,13.53-9.81,21.71-25.98,21.71H696.7v20.07h-6.72V38.37h23.8
			C729.95,38.37,739.76,46.55,739.76,60.17z M733.04,60.17c0-10.17-6.72-15.99-19.44-15.99h-16.9v31.79h16.9
			C726.32,75.98,733.04,70.16,733.04,60.17z"/>
	</g>
</g>
</svg>
